<svg width="25" height="25" viewBox="0 0 25 25" fill="none" xmlns="http://www.w3.org/2000/svg">
<path d="M12.5026 8.33398C11.3975 8.33398 10.3377 8.77297 9.55633 9.55437C8.77492 10.3358 8.33594 11.3956 8.33594 12.5007C8.33594 13.6057 8.77492 14.6655 9.55633 15.4469C10.3377 16.2283 11.3975 16.6673 12.5026 16.6673C13.6077 16.6673 14.6675 16.2283 15.4489 15.4469C16.2303 14.6655 16.6693 13.6057 16.6693 12.5007C16.6693 11.3956 16.2303 10.3358 15.4489 9.55437C14.6675 8.77297 13.6077 8.33398 12.5026 8.33398Z" fill="#363636" fillOpacity="0.93"/>
<path fillRule="evenodd" clipRule="evenodd" d="M7.5 0C5.51088 0 3.60322 0.790176 2.1967 2.1967C0.790176 3.60322 0 5.51088 0 7.5L0 17.5C0 19.4891 0.790176 21.3968 2.1967 22.8033C3.60322 24.2098 5.51088 25 7.5 25H17.5C19.4891 25 21.3968 24.2098 22.8033 22.8033C24.2098 21.3968 25 19.4891 25 17.5V7.5C25 5.51088 24.2098 3.60322 22.8033 2.1967C21.3968 0.790176 19.4891 0 17.5 0L7.5 0ZM6.66667 12.5C6.66667 10.9529 7.28125 9.46917 8.37521 8.37521C9.46917 7.28125 10.9529 6.66667 12.5 6.66667C14.0471 6.66667 15.5308 7.28125 16.6248 8.37521C17.7188 9.46917 18.3333 10.9529 18.3333 12.5C18.3333 14.0471 17.7188 15.5308 16.6248 16.6248C15.5308 17.7188 14.0471 18.3333 12.5 18.3333C10.9529 18.3333 9.46917 17.7188 8.37521 16.6248C7.28125 15.5308 6.66667 14.0471 6.66667 12.5ZM18.3333 6.66667H20V5H18.3333V6.66667Z" fill="#363636" fillOpacity="0.93"/>
</svg>
