<svg width="206" height="49" viewBox="0 0 206 49" fill="none" xmlns="http://www.w3.org/2000/svg">
<path d="M21.3745 37.3512C21.341 37.4854 21.0895 37.8206 20.6201 38.3571C20.2848 38.7594 19.8378 39.1171 19.279 39.43C18.7202 39.7318 17.9714 39.9665 17.0326 40.1341C16.1049 40.3129 14.8811 40.4023 13.3612 40.4023C11.3383 40.4023 9.61155 40.2962 8.18099 40.0838C6.75043 39.8826 5.58252 39.5697 4.67725 39.145C3.77197 38.7091 3.10699 38.1559 2.68229 37.4854C2.26877 36.8148 2.06201 36.0157 2.06201 35.0881C2.06201 34.1157 2.17377 33.2943 2.3973 32.6237C2.632 31.9419 2.96729 31.372 3.40316 30.9137C3.85021 30.4555 4.38666 30.0979 5.01253 29.8408C5.6384 29.5838 6.34809 29.3882 7.1416 29.2541C7.94629 29.12 8.82362 29.0361 9.7736 29.0026C10.7236 28.9691 11.735 28.9523 12.8079 28.9523C14.3391 28.9523 15.6188 29.0194 16.647 29.1535C17.6752 29.2764 18.5134 29.4385 19.1616 29.6396C19.821 29.8296 20.3184 30.0364 20.6536 30.2599C20.9889 30.4835 21.2292 30.6902 21.3745 30.8802C21.3745 29.6285 21.3186 28.5611 21.2069 27.6782C21.1063 26.7953 20.9331 26.0577 20.6872 25.4653C20.4525 24.873 20.1451 24.4036 19.7651 24.0571C19.3851 23.6995 18.9157 23.4313 18.3569 23.2524C17.8093 23.0736 17.1667 22.9619 16.429 22.9172C15.6914 22.8613 14.8476 22.8333 13.8976 22.8333C12.4224 22.8333 11.1986 22.8724 10.2262 22.9507C9.25391 23.0177 8.48275 23.1574 7.91276 23.3698C7.34277 23.5821 6.94043 23.8783 6.70573 24.2583C6.47103 24.6271 6.35368 25.1133 6.35368 25.7168H3.13493C3.13493 24.6998 3.31375 23.8392 3.67139 23.1351C4.0402 22.431 4.64372 21.861 5.48193 21.4251C6.33133 20.9781 7.44336 20.654 8.81803 20.4528C10.1927 20.2516 11.8859 20.151 13.8976 20.151C15.8646 20.151 17.5299 20.3131 18.8934 20.6372C20.2569 20.9613 21.3577 21.5313 22.196 22.3472C23.0454 23.163 23.6545 24.2639 24.0233 25.6497C24.4033 27.0244 24.5933 28.7679 24.5933 30.8802V40H21.3745V37.3512ZM13.8976 37.8542C15.317 37.8542 16.5017 37.7871 17.4517 37.653C18.4128 37.5189 19.184 37.3177 19.7651 37.0495C20.3463 36.7812 20.7598 36.446 21.0057 36.0436C21.2516 35.6413 21.3745 35.1719 21.3745 34.6354C21.3745 34.099 21.2292 33.6463 20.9386 33.2775C20.6592 32.8975 20.1842 32.5902 19.5137 32.3555C18.8543 32.1208 17.9769 31.9531 16.8817 31.8525C15.7864 31.7408 14.4341 31.6849 12.8247 31.6849C11.2153 31.6849 9.9133 31.7128 8.91862 31.7687C7.93511 31.8246 7.17513 31.9531 6.63867 32.1543C6.10221 32.3555 5.73899 32.6516 5.54899 33.0428C5.37017 33.434 5.28076 33.9648 5.28076 34.6354C5.28076 35.306 5.37576 35.8536 5.56576 36.2783C5.76693 36.6918 6.16927 37.016 6.77279 37.2507C7.3763 37.4854 8.24246 37.6474 9.37126 37.7368C10.5112 37.815 12.02 37.8542 13.8976 37.8542ZM33.1934 16.3958V40H29.9746V14.25H35.3392L50.3433 36.7812L65.3473 14.25H70.4772V40H67.2585V16.7479L51.9694 40H48.7171L33.1934 16.3958ZM104.811 14.25V16.9323H91.9356V40H88.7168V16.9323H75.8418V14.25H104.811ZM110.175 40V14.25H131.65C133.26 14.25 134.556 14.3841 135.54 14.6523C136.523 14.9094 137.277 15.295 137.803 15.8091C138.339 16.312 138.697 16.9435 138.876 17.7034C139.054 18.4634 139.144 19.3352 139.144 20.3187C139.144 21.034 139.082 21.6654 138.959 22.2131C138.837 22.7607 138.674 23.2357 138.473 23.638C138.272 24.0404 138.043 24.3812 137.786 24.6606C137.529 24.9289 137.266 25.1524 136.998 25.3312C136.372 25.7559 135.657 25.9962 134.852 26.0521C135.858 26.108 136.752 26.3538 137.535 26.7897C137.87 26.9797 138.194 27.22 138.507 27.5106C138.831 27.79 139.116 28.142 139.362 28.5667C139.619 28.9803 139.826 29.472 139.982 30.042C140.139 30.6008 140.217 31.249 140.217 31.9867C140.217 32.8808 140.172 33.7022 140.083 34.451C140.004 35.1886 139.837 35.8536 139.58 36.446C139.323 37.0383 138.954 37.558 138.473 38.005C137.993 38.4521 137.35 38.8265 136.545 39.1283C135.752 39.4188 134.774 39.6368 133.612 39.7821C132.461 39.9274 131.08 40 129.471 40H110.175ZM128.398 37.3177C129.65 37.3177 130.734 37.3009 131.65 37.2674C132.567 37.2227 133.343 37.1389 133.98 37.016C134.618 36.8818 135.132 36.6974 135.523 36.4627C135.914 36.2169 136.216 35.8983 136.428 35.5072C136.652 35.1048 136.802 34.6187 136.881 34.0487C136.959 33.4787 136.998 32.7913 136.998 31.9867C136.998 31.3608 136.959 30.8187 136.881 30.3605C136.802 29.8911 136.652 29.4999 136.428 29.187C136.216 28.8629 135.914 28.6058 135.523 28.4159C135.132 28.2147 134.618 28.0582 133.98 27.9465C133.343 27.8347 132.567 27.762 131.65 27.7285C130.734 27.6838 129.65 27.6615 128.398 27.6615H113.394V37.3177H128.398ZM128.398 24.9792C129.493 24.9792 130.438 24.9568 131.231 24.9121C132.025 24.8674 132.701 24.7836 133.26 24.6606C133.818 24.5377 134.271 24.3701 134.618 24.1577C134.964 23.9342 135.232 23.6492 135.422 23.3027C135.623 22.9563 135.757 22.5428 135.825 22.0622C135.892 21.5704 135.925 20.9893 135.925 20.3187C135.925 19.6034 135.847 19.0222 135.69 18.5752C135.534 18.1281 135.255 17.7873 134.852 17.5526C134.45 17.3067 133.902 17.1446 133.209 17.0664C132.528 16.977 131.65 16.9323 130.577 16.9323H113.394V24.9792H128.398ZM155.774 40.3688C153.628 40.3688 151.807 40.2235 150.309 39.9329C148.811 39.6312 147.593 39.1171 146.654 38.3906C145.716 37.6642 145.034 36.6918 144.609 35.4736C144.184 34.2554 143.972 32.7243 143.972 30.8802C143.972 28.7679 144.184 27.0244 144.609 25.6497C145.034 24.2639 145.716 23.163 146.654 22.3472C147.593 21.5313 148.811 20.9613 150.309 20.6372C151.807 20.3131 153.628 20.151 155.774 20.151C157.305 20.151 158.63 20.2628 159.747 20.4863C160.876 20.7099 161.837 21.034 162.631 21.4587C163.435 21.8834 164.084 22.3975 164.575 23.001C165.078 23.6045 165.469 24.2415 165.749 24.9121C166.039 25.5715 166.235 26.3483 166.336 27.2423C166.447 28.1364 166.503 29.0808 166.503 30.0755L166.235 31.1484H147.191C147.191 32.6237 147.336 33.8363 147.627 34.7863C147.917 35.7251 148.398 36.4124 149.068 36.8483C149.739 37.2842 150.622 37.5636 151.717 37.6865C152.812 37.7983 154.165 37.8542 155.774 37.8542C157.249 37.8542 158.468 37.815 159.429 37.7368C160.401 37.6474 161.172 37.4854 161.742 37.2507C162.312 37.016 162.709 36.6918 162.932 36.2783C163.167 35.8536 163.285 35.306 163.285 34.6354H166.503C166.503 35.6748 166.319 36.5633 165.95 37.3009C165.592 38.0274 164.994 38.6197 164.156 39.078C163.318 39.525 162.212 39.8491 160.837 40.0503C159.473 40.2626 157.786 40.3688 155.774 40.3688ZM155.774 22.8333C154.701 22.8333 153.74 22.8557 152.891 22.9004C152.052 22.9451 151.315 23.0457 150.678 23.2021C150.052 23.3474 149.515 23.5654 149.068 23.856C148.621 24.1354 148.258 24.4706 147.979 24.8618C147.71 25.2418 147.509 25.7839 147.375 26.488C147.252 27.1809 147.191 28.0191 147.191 29.0026H163.285C163.285 27.695 163.145 26.6724 162.865 25.9347C162.586 25.1859 162.145 24.5712 161.541 24.0907C160.938 23.6101 160.161 23.2804 159.211 23.1016C158.261 22.9227 157.115 22.8333 155.774 22.8333ZM187.425 26.9741C187.425 26.1694 187.364 25.5044 187.241 24.9792C187.129 24.4427 186.855 24.018 186.419 23.7051C185.983 23.381 185.335 23.1574 184.475 23.0345C183.625 22.9004 182.463 22.8333 180.988 22.8333C179.546 22.8333 178.372 22.9619 177.467 23.2189C176.562 23.4648 175.852 23.8168 175.338 24.2751C174.824 24.7333 174.472 25.2809 174.282 25.918C174.103 26.555 174.014 27.2647 174.014 28.047V40H170.795V20.6875H174.014V23.7554C174.125 23.4089 174.332 23.0289 174.634 22.6154C174.936 22.1907 175.394 21.7995 176.009 21.4419C176.623 21.0731 177.417 20.7657 178.389 20.5199C179.373 20.274 180.596 20.151 182.061 20.151C183.737 20.151 185.1 20.3019 186.151 20.6037C187.202 20.8943 188.017 21.3301 188.599 21.9113C189.191 22.4813 189.588 23.191 189.789 24.0404C190.001 24.8898 190.107 25.8677 190.107 26.9741H187.425Z" fill="white"/>
<path d="M191.767 20.297V20.9407H193.698V24.4813H194.664V20.9407H196.595V20.297H191.767ZM200.291 24.4813H201.267L203.354 21.0463V24.4813H204.32V20.297H202.781L200.779 23.6767L198.848 20.297H197.239V24.4813H198.204V20.9407L200.291 24.4813Z" fill="white" fillOpacity="0.8"/>
</svg>
