<svg id="Layer_1" data-name="Layer 1" xmlns="http://www.w3.org/2000/svg" viewBox="0 0 142.33 141.79">
  <defs>
    <style>
      .cls-1 {
        fill: #010101;
      }

      .cls-2 {
        fill: #009ade;
      }
    </style>
  </defs>
  <title>BL-exFromEPS</title>
  <g>
    <path class="cls-1" d="M26.86,91h.71v3.85h1.16v.64H26.86Z" transform="translate(-4.82 -4.56)"/>
    <path class="cls-1" d="M32.61,95.5H31.9l-.13-.81h-.86l-.13.81h-.65L30.85,91h1ZM31,94.08h.68l-.34-2.28Z" transform="translate(-4.82 -4.56)"/>
    <path class="cls-1" d="M35.69,93.11l-.26,2.39h-1L34,91h.69L35,94.55,35.37,91h.68l.35,3.57L36.77,91h.62l-.5,4.49H36Z" transform="translate(-4.82 -4.56)"/>
    <path class="cls-1" d="M39.69,94l-.9-3h.74l.54,2,.54-2h.68l-.9,3V95.5h-.7Z" transform="translate(-4.82 -4.56)"/>
    <path class="cls-1" d="M43.56,92.9h1v.64h-1v1.32h1.22v.64H42.85V91h1.93v.64H43.56Z" transform="translate(-4.82 -4.56)"/>
    <path class="cls-1" d="M48,95.5a1.34,1.34,0,0,1-.06-.55v-.7c0-.42-.15-.58-.47-.58h-.24V95.5H46.5V91h1.07c.73,0,1,.34,1,1v.35a.9.9,0,0,1-.47.92c.36.15.47.48.47,1V95a1.28,1.28,0,0,0,.08.54Zm-.77-3.85V93h.28c.26,0,.42-.11.42-.47v-.45c0-.32-.11-.46-.36-.46Z" transform="translate(-4.82 -4.56)"/>
    <path class="cls-1" d="M51.32,91c.69,0,1,.41,1,1.13v.14h-.67V92c0-.32-.13-.44-.35-.44S51,91.72,51,92c0,.93,1.38,1.1,1.38,2.38,0,.72-.36,1.14-1.06,1.14s-1.05-.42-1.05-1.14v-.27h.67v.32c0,.32.14.44.36.44s.37-.12.37-.44c0-.93-1.38-1.1-1.38-2.38C50.28,91.37,50.63,91,51.32,91Z" transform="translate(-4.82 -4.56)"/>
    <path class="cls-1" d="M57,93H58v.65H57V95.5h-.7V91h1.87v.64H57Z" transform="translate(-4.82 -4.56)"/>
    <path class="cls-1" d="M59.77,92.09a1.08,1.08,0,1,1,2.15,0v2.33a1.08,1.08,0,1,1-2.15,0Zm.71,2.38c0,.32.14.44.37.44s.36-.12.36-.44V92c0-.32-.14-.44-.36-.44s-.37.12-.37.44Z" transform="translate(-4.82 -4.56)"/>
    <path class="cls-1" d="M65.14,95.5a1.27,1.27,0,0,1-.07-.55v-.7c0-.42-.14-.58-.46-.58h-.24V95.5h-.71V91h1.07c.73,0,1,.34,1,1v.35a.89.89,0,0,1-.46.92c.35.15.47.48.47,1V95a1.28,1.28,0,0,0,.08.54Zm-.77-3.85V93h.27c.27,0,.43-.11.43-.47v-.45c0-.32-.11-.46-.36-.46Z" transform="translate(-4.82 -4.56)"/>
    <path class="cls-1" d="M69.81,91h.7V95.5h-.7Z" transform="translate(-4.82 -4.56)"/>
    <path class="cls-1" d="M72.94,92.25V95.5h-.63V91h.88l.73,2.69V91h.63V95.5h-.73Z" transform="translate(-4.82 -4.56)"/>
    <path class="cls-1" d="M76.15,94.86h.24c.23,0,.41-.09.41-.43V91h.7v3.38c0,.9-.48,1.13-1,1.13a1.83,1.83,0,0,1-.34,0Z" transform="translate(-4.82 -4.56)"/>
    <path class="cls-1" d="M79.94,91v3.47c0,.32.15.43.37.43s.37-.11.37-.43V91h.66v3.42c0,.72-.36,1.13-1,1.13s-1.05-.41-1.05-1.13V91Z" transform="translate(-4.82 -4.56)"/>
    <path class="cls-1" d="M84.59,95.5a1.27,1.27,0,0,1-.07-.55v-.7c0-.42-.14-.58-.46-.58h-.24V95.5h-.71V91h1.07c.73,0,1,.34,1,1v.35a.89.89,0,0,1-.46.92c.35.15.47.48.47,1V95a1.28,1.28,0,0,0,.08.54Zm-.77-3.85V93h.27c.27,0,.43-.11.43-.47v-.45c0-.32-.11-.46-.36-.46Z" transform="translate(-4.82 -4.56)"/>
    <path class="cls-1" d="M87.69,92.9h1v.64h-1v1.32h1.22v.64H87V91h1.93v.64H87.69Z" transform="translate(-4.82 -4.56)"/>
    <path class="cls-1" d="M90.63,91h1.11a1,1,0,0,1,1.06,1.11v2.27a1,1,0,0,1-1.06,1.11H90.63Zm.7.64v3.21h.4c.23,0,.36-.11.36-.44V92.09c0-.32-.13-.44-.36-.44Z" transform="translate(-4.82 -4.56)"/>
    <path class="cls-1" d="M98.86,93.83v.59c0,.72-.36,1.14-1,1.14s-1.06-.42-1.06-1.14V92.09A1,1,0,0,1,97.81,91c.69,0,1,.41,1,1.13v.43h-.67V92c0-.32-.14-.44-.36-.44s-.37.12-.37.44v2.43c0,.32.14.44.37.44s.36-.12.36-.44v-.64Z" transform="translate(-4.82 -4.56)"/>
    <path class="cls-1" d="M101.17,94l-.9-3H101l.54,2,.54-2h.68l-.9,3V95.5h-.7Z" transform="translate(-4.82 -4.56)"/>
    <path class="cls-1" d="M106.29,93.83v.59c0,.72-.36,1.14-1.06,1.14s-1-.42-1-1.14V92.09c0-.72.36-1.13,1-1.13a1,1,0,0,1,1.06,1.13v.43h-.67V92c0-.32-.14-.44-.37-.44s-.36.12-.36.44v2.43c0,.32.14.44.36.44s.37-.12.37-.44v-.64Z" transform="translate(-4.82 -4.56)"/>
    <path class="cls-1" d="M108,91h.71v3.85h1.16v.64H108Z" transform="translate(-4.82 -4.56)"/>
    <path class="cls-1" d="M111.46,91h.71V95.5h-.71Z" transform="translate(-4.82 -4.56)"/>
    <path class="cls-1" d="M114.92,91c.69,0,1,.41,1,1.13v.14h-.67V92c0-.32-.13-.44-.35-.44s-.35.12-.35.44c0,.93,1.38,1.1,1.38,2.38,0,.72-.36,1.14-1.06,1.14s-1-.42-1-1.14v-.27h.67v.32c0,.32.14.44.36.44s.37-.12.37-.44c0-.93-1.38-1.1-1.38-2.38C113.88,91.37,114.23,91,114.92,91Z" transform="translate(-4.82 -4.56)"/>
    <path class="cls-1" d="M117.45,91h2.19v.64h-.74V95.5h-.71V91.65h-.74Z" transform="translate(-4.82 -4.56)"/>
    <path class="cls-1" d="M122.18,91c.69,0,1,.41,1,1.13v.14h-.67V92c0-.32-.13-.44-.35-.44s-.35.12-.35.44c0,.93,1.38,1.1,1.38,2.38,0,.72-.36,1.14-1.06,1.14s-1-.42-1-1.14v-.27h.67v.32c0,.32.14.44.36.44s.37-.12.37-.44c0-.93-1.38-1.1-1.38-2.38C121.14,91.37,121.49,91,122.18,91Z" transform="translate(-4.82 -4.56)"/>
  </g>
  <path class="cls-1" d="M147.14,74.15a6.14,6.14,0,0,1-1.28-12.21c-.16-.86-.34-1.71-.53-2.56a6.14,6.14,0,0,1-3.79-11.68c-.34-.8-.7-1.59-1.07-2.38a6.15,6.15,0,0,1-6.15-10.63c-.5-.71-1-1.42-1.54-2.11a6.14,6.14,0,0,1-8.22-9.12c-.63-.6-1.28-1.18-1.93-1.75a6.15,6.15,0,0,1-9.93-7.23c-.75-.45-1.5-.88-2.26-1.3a6.15,6.15,0,0,1-11.22-5c-.82-.29-1.65-.56-2.48-.81a6.15,6.15,0,0,1-12-2.54c-.86-.11-1.72-.2-2.59-.27a6.15,6.15,0,0,1-12.28,0c-.87.07-1.74.16-2.6.27a6.14,6.14,0,0,1-12,2.54c-.84.25-1.66.52-2.49.81a6.14,6.14,0,0,1-11.21,5c-.76.42-1.52.85-2.26,1.3a6.15,6.15,0,0,1-9.93,7.23c-.66.57-1.3,1.15-1.94,1.75a6.14,6.14,0,0,1-8.22,9.12c-.52.69-1,1.4-1.53,2.11a6.15,6.15,0,0,1-6.15,10.63c-.37.79-.73,1.58-1.07,2.38A6.14,6.14,0,0,1,6.65,59.38c-.2.85-.37,1.7-.54,2.56A6.14,6.14,0,0,1,4.84,74.15c0,.44,0,.87,0,1.31s0,.87,0,1.3A6.14,6.14,0,0,1,6.11,89c.17.86.34,1.71.54,2.56a6.14,6.14,0,0,1,3.79,11.68c.34.8.7,1.6,1.07,2.38a6.15,6.15,0,0,1,6.15,10.63c.5.72,1,1.42,1.53,2.11a6.14,6.14,0,0,1,8.22,9.12c.64.6,1.28,1.18,1.94,1.76a6.14,6.14,0,0,1,9.93,7.22c.74.45,1.5.88,2.26,1.31a6.14,6.14,0,0,1,11.21,5c.83.28,1.65.55,2.49.8a6.14,6.14,0,0,1,12,2.55c.86.1,1.73.19,2.6.26a6.15,6.15,0,0,1,12.28,0c.87-.07,1.73-.16,2.59-.26a6.15,6.15,0,0,1,12-2.55c.83-.25,1.66-.52,2.48-.8a6.15,6.15,0,0,1,11.22-5c.76-.43,1.51-.86,2.26-1.31a6.14,6.14,0,0,1,9.93-7.22c.65-.58,1.3-1.16,1.93-1.76a6.14,6.14,0,0,1,8.22-9.12c.53-.69,1-1.39,1.54-2.11a6.15,6.15,0,0,1,6.15-10.63c.37-.78.73-1.58,1.07-2.38a6.14,6.14,0,0,1,3.79-11.68c.19-.85.37-1.7.53-2.56a6.14,6.14,0,0,1,1.28-12.21c0-.43,0-.87,0-1.3S147.14,74.59,147.14,74.15ZM76,136.92a61.47,61.47,0,1,1,61.46-61.46A61.47,61.47,0,0,1,76,136.92Z" transform="translate(-4.82 -4.56)"/>
  <path class="cls-1" d="M76,135.05a59.6,59.6,0,1,1,59.59-59.59A59.66,59.66,0,0,1,76,135.05ZM76,18.11a57.35,57.35,0,1,0,57.35,57.35A57.41,57.41,0,0,0,76,18.11Z" transform="translate(-4.82 -4.56)"/>
  <g>
    <path class="cls-2" d="M30,60.7h6.75c3,0,4.64,1,4.75,3a6.1,6.1,0,0,1-.07,1.38L40.83,69c-.33,2-.92,2.82-2.67,3.41,1.15.56,1.71,1.19,1.71,2.08A7.12,7.12,0,0,1,39.72,76l-.78,5.31a5.27,5.27,0,0,1-1.48,3.16c-.93.81-1.82,1-4.83,1H26.21Zm2.11,20.75c1.34,0,1.52-.11,1.75-1.45l.66-4.23c0-.33,0-.52,0-.74,0-.52-.3-.63-1.41-.56Zm2.41-11.54c.71,0,.93-.26,1.08-1.19L36,66c0-.33.07-.59.07-.74,0-.45-.26-.56-1.41-.56l-.81,5.2Z" transform="translate(-4.82 -4.56)"/>
    <path class="cls-2" d="M43.91,60.7h5.31L45.4,85.46H40.13Z" transform="translate(-4.82 -4.56)"/>
    <path class="cls-2" d="M51.08,60.7h5.31l-1.53,9.8L58,60.7h5.19L58.83,72l1.08,13.44h-5l-.48-11.58L52.56,85.46H47.29Z" transform="translate(-4.82 -4.56)"/>
    <path class="cls-2" d="M64.92,60.7H73.2l-.63,4h-3l-.78,5.12h2.93l-.59,4h-3L67,81.41H70l-.63,4h-8.2Z" transform="translate(-4.82 -4.56)"/>
    <path class="cls-1" d="M74.57,60.7h5.31L76.69,81.41h3l-.63,4H70.79Z" transform="translate(-4.82 -4.56)"/>
    <path class="cls-1" d="M84.15,60.7h8.27l-.63,4h-3L88,69.87H91l-.6,4h-3l-1.15,7.49h2.93l-.63,4h-8.2Z" transform="translate(-4.82 -4.56)"/>
    <path class="cls-1" d="M99.29,83.83c-.93,1.48-2,1.93-4.23,1.93a5.32,5.32,0,0,1-3.45-.86,3,3,0,0,1-1-2.11,10,10,0,0,1,.18-2l2.3-15.26c.67-4.19,1.86-5.08,6.76-5.08,3.6,0,5.2.78,5.49,2.78a4.7,4.7,0,0,1,0,1.63l-.7,4.53H99.29l.56-3.56v-.56a.63.63,0,0,0-.52-.7c-.56-.08-.89.29-1,1.11l-2.26,14.7a3.42,3.42,0,0,0-.07.55.7.7,0,0,0,.7.75c.56,0,.78-.34.93-1.34l.56-3.49h-.82L98,72.73h6.09l-2,12.73H99.85Z" transform="translate(-4.82 -4.56)"/>
    <path class="cls-1" d="M110.24,60.7h6.42l-.74,24.76H111l.44-4.9h-2l-1.11,4.9h-5.09Zm1.56,15.81.78-10.2-2.27,10.2Z" transform="translate(-4.82 -4.56)"/>
    <path class="cls-1" d="M121,60.7h5.31l-3.19,20.71h3l-.63,4h-8.28Z" transform="translate(-4.82 -4.56)"/>
  </g>
</svg>
