<svg id="Layer_1" data-name="Layer 1" xmlns="http://www.w3.org/2000/svg" viewBox="0 0 100.06 25.35">
  <defs>
    <style>
      .cls-1 {
        fill: #6d6d6d;
      }

      .cls-2 {
        fill: #010101;
      }
    </style>
  </defs>
  <title>BL-wordmark</title>
  <g>
    <path class="cls-1" d="M30,60.7h6.75c3,0,4.64,1,4.75,3a6.1,6.1,0,0,1-.07,1.38L40.83,69c-.33,2-.92,2.82-2.67,3.41,1.15.56,1.71,1.19,1.71,2.08A7.12,7.12,0,0,1,39.72,76l-.78,5.31a5.27,5.27,0,0,1-1.48,3.16c-.93.81-1.82,1-4.83,1H26.21Zm2.11,20.75c1.34,0,1.52-.11,1.75-1.45l.66-4.23c0-.33,0-.52,0-.74,0-.52-.3-.63-1.41-.56Zm2.41-11.54c.71,0,.93-.26,1.08-1.19L36,66c0-.33.07-.59.07-.74,0-.45-.26-.56-1.41-.56l-.81,5.2Z" transform="translate(-26.21 -60.41)"/>
    <path class="cls-1" d="M43.91,60.7h5.31L45.4,85.46H40.13Z" transform="translate(-26.21 -60.41)"/>
    <path class="cls-1" d="M51.08,60.7h5.31l-1.53,9.8L58,60.7h5.19L58.83,72l1.08,13.44h-5l-.48-11.58L52.56,85.46H47.29Z" transform="translate(-26.21 -60.41)"/>
    <path class="cls-1" d="M64.92,60.7H73.2l-.63,4h-3l-.78,5.12h2.93l-.59,4h-3L67,81.41H70l-.63,4h-8.2Z" transform="translate(-26.21 -60.41)"/>
    <path class="cls-2" d="M74.57,60.7h5.31L76.69,81.41h3l-.63,4H70.79Z" transform="translate(-26.21 -60.41)"/>
    <path class="cls-2" d="M84.15,60.7h8.27l-.63,4h-3L88,69.87H91l-.6,4h-3l-1.15,7.49h2.93l-.63,4h-8.2Z" transform="translate(-26.21 -60.41)"/>
    <path class="cls-2" d="M99.29,83.83c-.93,1.48-2,1.93-4.23,1.93a5.32,5.32,0,0,1-3.45-.86,3,3,0,0,1-1-2.11,10,10,0,0,1,.18-2l2.3-15.26c.67-4.19,1.86-5.08,6.76-5.08,3.6,0,5.2.78,5.49,2.78a4.7,4.7,0,0,1,0,1.63l-.7,4.53H99.29l.56-3.56v-.56a.63.63,0,0,0-.52-.7c-.56-.08-.89.29-1,1.11l-2.26,14.7a3.42,3.42,0,0,0-.07.55.7.7,0,0,0,.7.75c.56,0,.78-.34.93-1.34l.56-3.49h-.82L98,72.73h6.09l-2,12.73H99.85Z" transform="translate(-26.21 -60.41)"/>
    <path class="cls-2" d="M110.24,60.7h6.42l-.74,24.76H111l.44-4.9h-2l-1.11,4.9h-5.09Zm1.56,15.81.78-10.2-2.27,10.2Z" transform="translate(-26.21 -60.41)"/>
    <path class="cls-2" d="M121,60.7h5.31l-3.19,20.71h3l-.63,4h-8.28Z" transform="translate(-26.21 -60.41)"/>
  </g>
</svg>
