<svg id="Layer_1" data-name="Layer 1" xmlns="http://www.w3.org/2000/svg" viewBox="0 0 542.08 417.33">
  <title>FC-logo-final</title>
  <path d="M751.91,1015.5q13,0,25.93.08c.29,0,.58.27,1,.5v8.11H761.49v19h15v8.56H761.24v27.5l-9.33-.78Z" transform="translate(-751.91 -662.42)"/>
  <path d="M991.94,794c-.65-6-1.89-11.8-1.7-17.54A25.28,25.28,0,0,1,993.77,764c3.83-5.85,12-6.34,17.65-1.94,2.3,1.79,4.34,3.91,6.92,6.28,2.27-12.42,4.35-24.31,6.65-36.15,1.43-7.33-2.14-13.58-3.63-20.31a95.68,95.68,0,0,1-2.44-20.13c0-7.76,2.46-8.93,9.81-6,.91.37,1.79.78,3.21,1.41a62.21,62.21,0,0,1,2-6.75c2-4.72,3.67-9.65,6.37-13.93,3.61-5.74,10.12-5.27,12.73,1.09a38.07,38.07,0,0,1,2.87,14.92c-.29,13.13-1.49,26.25-2.17,39.38a13.88,13.88,0,0,0,1,6.16c6,13.68,13.27,27.08,14.46,42.25.89,11.35.15,22.82.24,34.24a7.12,7.12,0,0,0,1.12,4c9.92,13,9.25,27,4.86,41.76-4.22,14.16-6.89,28.83-15.07,41.56-.54.85-.31,2.25-.29,3.4.14,10.48.21,21,.51,31.45.19,6.39-3.81,10.35-8.67,12.29-18,7.15-36.24,12.81-55.38,3.54-5.76-2.79-9.36-6.61-8.72-13.56a83.14,83.14,0,0,0,0-11.49c-.4-8.61-1.57-16.59-6.6-24.46-4.29-6.7-6.08-15.41-7.46-23.5-3.36-19.65-6.52-39.39-1-59.33C976,798,978.89,795.11,991.94,794Zm61.23,106.59c-15.76.44-16.22.52-21.15-2.26-1.32-.75-2.08-2.5-3.11-3.79,1.71-.69,3.36-1.72,5.13-2,1.16-.16,2.6.59,3.71,1.28,3.49,2.16,7.44,2.35,10.37.09,3.66-2.81,7.84-6.26,9.34-10.34a399.59,399.59,0,0,0,13.07-41.79c1.94-7.91,2.36-16.37-2.37-24.25-5.21-8.68-9.71-17.79-14.46-26.74-1.82-3.44-11.19-4.81-13.32-1.62-2.54,3.82-4.53,8-7.38,13.13,3.81.13,7.63.07,11.4.46,1.9.19,5.35,1.38,5.3,1.81-.54,4.77-.36,10.3-2.8,14-8.69,13.38-14.89,27.09-12.1,43.57.15.9-1.6,2.9-2.62,3s-2.79-1.11-3.48-2.21-.74-2.88-.84-4.36c-.85-13.56,2.15-26.11,9.89-37.4a59.87,59.87,0,0,0,4.32-6.72c1.47-2.89.28-4.61-3-4.81-1.32,10-6.74,13.5-14.63,9.4a11.82,11.82,0,0,1-4.62-3.68q-9.17-14.85-17.83-30c-.51-.88.06-3.49.61-3.65a8.2,8.2,0,0,1,5,.15c1,.4,1.48,2.1,2.15,3.25,3.51,6,7.05,12.06,10.49,18.15,1.81,3.21,3.29,2.19,4.79.37-1.3-6.5-11.62-10.7-2.85-19-5-5.88-9.55-12-14.9-17.44-4.41-4.44-9.65-2.37-10,3.95-.28,5.58,1.08,11.23,1.29,16.86.25,6.49,3.14,11.28,7.17,16.34,5.31,6.67,9.2,14.52,13.35,22,1.74,3.15,1.51,7.18-1.87,8.82-2.15,1-6,.56-8.14-.78-7-4.42-13.67-9.44-20.27-14.48-1.32-1-1.82-3.12-2.69-4.73,1.95-.39,4-1.31,5.84-1,1.63.25,3.1,1.79,4.55,2.88,2.2,1.66,4.32,3.43,6.55,5.21l4.11-5.07c-2.46-3.18-4.74-6.43-7.34-9.4-3.44-3.93-7.15-8-13.11-6.47s-6.2,7.12-7.73,11.78c-4.29,13.15-1.89,26.52-.68,39.67,1.45,15.69,3.25,31.59,14.12,44.47a7.51,7.51,0,0,1,1.35,4.17c.52,7.64,1,15.28,1.25,22.93.31,9.87,2.67,12.77,12.26,14.86,13.61,3,26.47-.46,39.06-4.89,2.7-1,6.23-4.21,6.44-6.66C1053.64,918.93,1053.17,909.93,1053.17,900.59Zm-25.92-210-1.39.29a44.83,44.83,0,0,0-.9,5.24c-.63,10.21,3.93,19,7.51,28.12a296.76,296.76,0,0,1,9.65,29.24c1.61,5.8,1.87,12,2.75,18,1.06,0,1.63-.16,2,0,1.85.89,3.66,1.87,5.49,2.82-1.68,1.09-3.3,3-5.05,3.14a97,97,0,0,1-14.46-.17c-1.12-.08-2.13-1.62-3.19-2.49,1.06-1.07,2-2.52,3.23-3.09s3.15-.41,4.68-.56c.57-11-2.79-27.36-6.66-32.4-.35,1.43-.69,2.7-1,4-2,9.77-3.79,19.59-6.16,29.27-1.07,4.35,3.29,11.73,7.75,11.38a158.4,158.4,0,0,0,16.83-2c5.81-1.09,9.2,1.41,11.5,6.32,1,2.09,2,4.16,3,6.24,1.6-16.94-.27-33-7.44-48.12-7.76-16.35-15.75-32.58-23.76-48.81C1030.59,694.64,1028.76,692.68,1027.25,690.55Zm19.45,22.78c3.53-12.75,3.24-39.15-.48-44.16C1036.19,680.38,1036.4,699.94,1046.7,713.33Z" transform="translate(-751.91 -662.42)"/>
  <path d="M820.86,1043.15v35.65h-8.73v-62.58c7.78-1.92,8.26-1.66,10.79,5.39,3.52,9.83,7.07,19.64,11.53,29.35v-35.14h9.07v62.62c-7.92,1.61-8.09,1.52-10.64-5.47q-5.45-15-10.91-29.91Z" transform="translate(-751.91 -662.42)"/>
  <path d="M1092.87,1078.5c-9.17,1.55-9.22,1.52-11.68-6.38-1.72-5.55-3.42-11.12-5.18-16.65-1.18-3.7-1.23-3.68-6.28-3.21v26.46h-9v-63.06c6.06,0,11.87-.37,17.62.1,6,.5,10.34,4,11.63,10,1.82,8.45,2.68,16.85-5,23.47-.8.68-.75,3-.33,4.32C1087.24,1061.89,1090.08,1070.15,1092.87,1078.5Zm-23-34.62c4.32-.71,9.6,1.62,10.87-3.53a23.47,23.47,0,0,0-.66-13.75c-1.56-3.8-6.44-2.54-10.21-1.9Z" transform="translate(-751.91 -662.42)"/>
  <path d="M945.55,1078.78h-8.76v-62.87c6.29,0,12.55-.39,18.74.12a11.08,11.08,0,0,1,10.05,8.55c2.28,8.71,3.34,17.41-4.48,24.48-.82.75-1,3-.56,4.26,2.62,8.36,5.47,16.64,8.26,25-8.38,2.06-9.14,1.66-11.52-5.91-1.74-5.54-3.45-11.1-5.21-16.64-1.29-4.06-1.31-4.06-6.52-3.32Zm.31-55.62v21.66c4.09-1.38,9.62-1.76,10.32-3.8a22.9,22.9,0,0,0,0-14.11C955.41,1024.87,949.89,1024.51,945.86,1023.16Z" transform="translate(-751.91 -662.42)"/>
  <path d="M1264.61,1079v-63.32c5.76,0,11.27-.46,16.66.11,7.65.81,12.22,6.08,12.46,14.41.33,11.15.36,22.32,0,33.46-.33,9.92-5.44,14.74-15.42,15.29C1273.87,1079.21,1269.41,1079,1264.61,1079Zm9.25-54.27v45.43c8.92.69,10.83-1.05,10.85-9.52q0-13.49,0-27C1284.67,1025.22,1282.51,1023.42,1273.86,1024.74Z" transform="translate(-751.91 -662.42)"/>
  <path d="M1132.93,1047.51c0,5.67.12,11.33,0,17-.22,8.6-6,14.56-14.25,15-8.59.48-15.68-4.88-16.08-13.55-.58-12.45-.58-25,0-37.42.4-8.47,7.49-14.07,15.54-13.71,8.46.38,14.53,6.51,14.77,15.18C1133.06,1035.85,1132.93,1041.69,1132.93,1047.51Zm-21.3-.29h0c0,5.65,0,11.31,0,17,0,3.77,1.92,6,5.69,6.2,4,.17,6.34-2.08,6.38-6,.13-11.32.11-22.64,0-33.95,0-4-2.21-6.21-6.27-6.13s-5.88,2.5-5.85,6.47C1111.65,1036.23,1111.63,1041.72,1111.63,1047.22Z" transform="translate(-751.91 -662.42)"/>
  <path d="M877.11,1052.5l-6.91-.8v-7.09h16.6c-.36,8.21-.06,16.53-1.28,24.62-1,6.85-8.67,11-16.22,10.26-7.16-.71-13-6.11-13.26-13.33q-.56-18.71,0-37.45c.25-8.33,7.74-14.43,15.94-13.83,9.46.69,15,7.63,14.23,18.34h-8.84c-.1-1.29-.18-2.42-.27-3.55-.31-4-2.69-5.55-6.38-5.39-3.89.16-5.64,2.59-5.68,6.24-.09,7.65,0,15.31,0,23,0,3.66-.09,7.33.06,11s2.31,5.89,6,5.92,5.91-2,6-5.86S877.11,1056.62,877.11,1052.5Z" transform="translate(-751.91 -662.42)"/>
  <path d="M1215.52,1033.43h-8.7c-.32-1.78-.09-3.86-1-4.91-1.57-1.77-3.84-3.89-5.9-4-1.76-.07-4.52,2.11-5.3,4-2.52,6-.42,10.13,5.6,12.68.3.13.62.25.93.37,13.82,5.66,16.5,10.53,13.92,25.35-1.63,9.33-8.61,14.13-18.18,12.49-8.39-1.44-13.34-8.66-12-17.92h8c.28,1.37.55,2.79.88,4.19.89,3.74,3.42,5.09,7,4.79,3.35-.28,4.92-2.19,5.37-5.47,1.32-9.6.31-11.39-9.1-15.29-10.44-4.32-13.66-9.92-12.1-21,1.24-8.79,8.27-14.58,16.67-13.71C1210.82,1015.86,1216.06,1022.6,1215.52,1033.43Z" transform="translate(-751.91 -662.42)"/>
  <path d="M977.23,1061.38h8.47c.28,1.42.51,2.84.83,4.24.8,3.45,3,5,6.52,4.85s5.43-2,6-5.44c1.43-9.43.28-11.41-9.07-15.3-10.76-4.48-14.47-11.7-11.82-23a15,15,0,0,1,17.71-11.58c8.88,1.66,13.42,8.47,11.94,18.26h-8c-.36-1.69-.18-3.92-1.2-5.07-1.57-1.76-4-3.78-6-3.81-1.78,0-4.51,2.24-5.23,4.1-2.35,6.12-.25,10.06,5.87,12.62.31.13.63.22.94.35,13.6,5.51,17.19,12.69,13.51,27-2.05,8-8.84,12.14-17.68,10.79C981.64,1078.15,976.73,1071.42,977.23,1061.38Z" transform="translate(-751.91 -662.42)"/>
  <path d="M1174.54,1033.47h-8.18c-.48-1.9-.43-4.23-1.56-5.56-1.42-1.65-3.79-3.37-5.77-3.4-1.72,0-4.3,1.93-5.06,3.64-2.66,6-.46,10.56,5.62,13.1a11.81,11.81,0,0,0,1.41.5c14.87,4,16.18,14.24,12.19,29.07-1.91,7.1-10.07,10.33-18.11,8.35s-12.19-8.73-10.94-17.73h8.1c1.43,7.5,3.39,9.71,8.14,8.92a6.78,6.78,0,0,0,3.85-1.95c4-4.71,1.35-14.74-4.38-17.22-1.53-.66-3.07-1.27-4.6-1.91-8.8-3.74-12.1-9.28-11.2-18.8,1-10.08,7.5-16.33,16.49-15.6C1170.63,1015.71,1176.54,1024.36,1174.54,1033.47Z" transform="translate(-751.91 -662.42)"/>
  <path d="M899.27,1015.65h26.4v8.5h-17.4v18.39h15.2v8.75H908.31v18.44h17.43v9.13H899.27Z" transform="translate(-751.91 -662.42)"/>
  <path d="M1236.3,1042.62h15.08v8.56h-15v18.64h17.3v9H1227.1v-62.93h26.66V1024H1236.3Z" transform="translate(-751.91 -662.42)"/>
  <path d="M1039.63,1061.06h8.17a14.55,14.55,0,0,1-10.87,18.29c-9.08,1.82-17.3-3.46-17.65-12.3-.52-13-.47-26-.06-39,.25-8.25,7.66-14,15.8-13.18,9.13.89,14.41,8.11,13.18,18.4h-8.41c-.32-1.82-.09-4-1.06-5.27-1.23-1.64-3.43-3.53-5.19-3.51s-4.25,2.12-4.69,3.77c-.89,3.29-.71,6.9-.75,10.38-.08,7.33-.1,14.67,0,22,.06,4-.84,9.16,5.14,9.65S1039.23,1065.84,1039.63,1061.06Z" transform="translate(-751.91 -662.42)"/>
  <path d="M790.19,1015.64h8.45v63.08h-8.45Z" transform="translate(-751.91 -662.42)"/>
</svg>
