<svg id="Layer_1" data-name="Layer 1" xmlns="http://www.w3.org/2000/svg" viewBox="0 0 1205.44 477.22">
  <title>FS-logo-final</title>
  <path d="M923.93,733.58c8.42,2.67,13.39,9,15.29,17,2.85,11.91,4.54,24.11,6.43,36.23.59,3.77-1.13,6.36-5.58,6.12-3.15-.18-6.34.1-9.46-.25-4.62-.52-7.5-2.7-7.74-8a186.72,186.72,0,0,0-2.07-20.86c-.84-5.31-2.59-10.66-8.78-12.14-4.72-1.12-10.55,2.95-14.16,8.41a22.76,22.76,0,0,0-2.39,20.62,153.87,153.87,0,0,0,11.33,25.91c10.05,17.81,22,34.63,31.09,52.89,11.21,22.51,17.46,46.7,15,72.28a82.2,82.2,0,0,1-4,18.45c-3.67,10.81-11.78,16.54-23.16,16.21-8.43-.24-16.86-1.57-25.23-2.85-6.5-1-10.73-5.12-12.49-11.48-1.16-4.16-2.46-8.37-2.84-12.63-1-11.55-1.63-23.14-2.26-34.72-.06-1.26.47-3.28,1.36-3.75,5.28-2.83,11-2.77,16.44-.81,1.11.4,1.68,3.23,1.92,5,1.5,11,2.79,22.06,4.25,33.09a14.83,14.83,0,0,0,1.45,4.23c1.91,4.05,4,7.59,9.59,7,8.75-.91,10.84-1.94,12.27-8.91a97.53,97.53,0,0,0,1.48-14.81c1.14-25.47-6.76-48.45-19.2-70.29-10-17.64-20-35.37-29.09-53.48a86.45,86.45,0,0,1-8.14-25c-3.85-24.37,6.62-39.46,30.9-42.46,1.63-.2,3.22-.67,4.84-1Z" transform="translate(-397.93 -733.58)"/>
  <path d="M397.93,864.58c13.77-6.57,27.62-13,41.29-19.78,4.12-2,6.66-.91,8.63,2.61s3.6,7,5.86,11.5l-28.87,13.87L465.33,945c6.4-3.44,12.45-6.51,18.31-9.91,3-1.74,4.85-1.23,6.44,1.75,1.81,3.37,4,6.53,5.7,10s1.12,6.29-2.8,8.16A93,93,0,0,0,482.1,961c-3,2-4.34,4.15-2.1,8.21,15.09,27.4,29.86,55,44.73,82.48.38.72.68,1.5,1.43,3.17-5.56,3.2-11,6.57-16.77,9.38-.86.43-3.68-1.37-4.43-2.76-19.08-35.63-37.85-71.42-57-107-9.4-17.43-19.53-34.46-29.26-51.71-6.05-10.72-11.95-21.53-18-32.27-.79-1.4-1.86-2.64-2.79-4Z" transform="translate(-397.93 -733.58)"/>
  <path d="M1254.93,1210.58c-14.06-6.5-19.29-16.65-15.09-29.25,5-15.12,25.06-20,37-8.71l-4,4.92c-2.89-1.27-5.48-2.8-8.28-3.57a13.65,13.65,0,0,0-16,7c-3.31,6.16-2.24,14.41,2.46,19,4.4,4.29,13.21,5.65,18,1.84,1.91-1.52,2-5.26,3.26-8.79l-11.64-.65v-5.76a31.85,31.85,0,0,1,3.56-.42c4.63,0,9.27,0,14.52,0,0,5.74.32,11-.19,16.28-.16,1.63-2.34,3.4-4,4.49a60.81,60.81,0,0,1-7.53,3.64Z" transform="translate(-397.93 -733.58)"/>
  <path d="M1345.93,1210.58c-7.16-3.34-13-7.89-15-16-2.48-10.07,1.54-20.07,10-25,8.78-5.12,19.74-3.75,28,3.78l-4.39,5.1c-10.9-6.41-17.57-6.35-22.88.11a16.38,16.38,0,0,0,.42,20.7c5.47,6.12,12.85,6,22.82-.79l5.11,5.27-12,6.88Z" transform="translate(-397.93 -733.58)"/>
  <path d="M698.93,1210.58q-7.63-18.94-15.25-37.89c-.61-1.52-1.18-3-1.78-4.62,7.46-1.64,7.56-1.58,10.08,4.87,3.39,8.65,6.8,17.3,10.62,27,3.74-9.56,7.44-18.08,10.36-26.86,1.73-5.16,4.46-6.88,10.17-5.15l-17.2,42.64Z" transform="translate(-397.93 -733.58)"/>
  <path d="M1157.79,801.55c-1.24,8.84-2.6,17.67-3.7,26.53q-7.42,59.73-14.74,119.47c-.63,5.13-1.28,10.25-1.78,15.39-.3,3.12-1.83,4.41-4.92,4.09-1.49-.16-3-.11-4.49-.15-9.36-.22-10.88-2.3-9.82-11.55,2.24-19.69,3.58-39.49,6.35-59.1,6.72-47.45,14-94.83,21.21-142.22.71-4.71,2.33-9.28,3.84-15.1,6.36.85,13,1.61,19.68,2.68,3.22.51,4.26,2.75,4.58,6.07q3.74,38.28,8,76.5c.48,4.37,2.23,8.59,3.79,14.37,1.58-3.91,2.56-6.58,3.73-9.17q15-33.21,30-66.4a95.41,95.41,0,0,1,5.62-10.57c1.7-2.75,3.84-7.36,5.84-7.39,5.47-.09,11,1.64,16.42,3.08.84.23,1.61,2.81,1.49,4.22-1.8,20.72-3.54,41.44-5.74,62.12-2.78,26.15-5.56,52.31-9.08,78.37s-8,52-12,78c-.61,4-2.25,5.61-6.58,5.42-16.7-.75-14.51-.38-12.61-14.3,2.56-18.62,5.93-37.13,8.47-55.75,3.44-25.23,6.47-50.52,9.58-75.8a143.31,143.31,0,0,0,1.18-22.17c-2.65,5.38-5.49,10.68-7.91,16.17-9.21,20.82-18.28,41.7-27.41,62.56-.46,1.07-.7,2.37-1.46,3.15-1.36,1.4-3.16,3.58-4.56,3.43a7.05,7.05,0,0,1-5-3.69A100.89,100.89,0,0,1,1171,873c-4.3-23.73-8.33-47.51-12.46-71.27Z" transform="translate(-397.93 -733.58)"/>
  <path d="M1333.68,1000.47c-6.64-1.06-12.35-2-18.06-2.9-3.3-.53-3-3-2.82-5.36q1.79-20.15,3.57-40.3c.46-5.14.87-10.28,1.28-15.42.24-3-.49-4.61-4.15-5.27-9.47-1.69-18.8-4.24-28.22-6.27-7.64-1.65-8-1.27-10.73,6.1-5.94,15.88-12,31.7-17.94,47.59-1.36,3.67-3.49,4.86-7.21,3.8-4.16-1.18-8.4-2.06-12.55-3.24-2.53-.72-3.21-2.21-2.17-4.94q16.85-44.26,33.46-88.63c8.63-23,17-46.19,25.72-69.19,5.85-15.39,12.23-30.58,18.24-45.91,1.64-4.19,2.93-7,8.76-5.19,8,2.46,16.64,3,24.75,5.21,9.54,2.65,9.79,3.1,8.91,12.69-2.49,27.18-5.33,54.32-8,81.48q-3.29,33.56-6.43,67.11C1338,954.33,1335.89,976.83,1333.68,1000.47Zm-12-93.16c.38-2.18.62-3.29.75-4.42,2.16-18.66,4.6-37.3,6.39-56,1.7-17.71,2.74-35.49,4-53.24.13-2,.87-5-2.56-4.66a6.47,6.47,0,0,0-4.23,3.44c-3.94,8.8-7.91,17.61-11.18,26.67-8.3,23-16.27,46-24.29,69.12-1.19,3.41-2,7-3.25,11.69Z" transform="translate(-397.93 -733.58)"/>
  <path d="M748.48,906.05c.94,6.25,1.72,12.45,2.84,18.58,3.23,17.82,6.68,35.61,9.74,53.46.26,1.52-1.36,4.57-2.68,5a104.13,104.13,0,0,1-17,3.38c-1,.12-3.16-2.6-3.43-4.24-2.78-16.91-5.25-33.88-7.87-50.82Q725.61,902,721,872.71c-3.2-20-6.63-40-9.79-60.07-2.36-14.94-4.63-29.89-6.57-44.89-1.07-8.24-.77-8.77,7.2-10.67a244.35,244.35,0,0,1,28.23-5.27C753.16,750.3,763,756,767.87,768.2A135.81,135.81,0,0,1,775.26,794c3.1,16.81,6.74,33.65,5.23,51-.53,6.13-.91,12.3-1.94,18.35-1.74,10.3-4.95,20.07-13.49,28.2,3.91,1.29,7.07,2.62,10.35,3.38,9.37,2.19,15.56,8.23,18,17,4,14.89,7.08,30.06,10.37,45.15a109.23,109.23,0,0,1,2.07,14.3c.11,1.32-1.3,2.81-2.14,4.15-.21.32-.91.34-1.39.47-14.06,3.94-14.61,3.22-17.35-10.82-2.8-14.33-6.17-28.6-10.15-42.66C771.89,912.37,760.36,905.48,748.48,906.05Zm-1.93-25.8,1.9.44c2.17-3,4.91-5.79,6.4-9.11,5.59-12.51,8.33-25.67,6.6-39.39-1.14-9.06-2.73-18.08-4.6-27a223.06,223.06,0,0,0-6.15-23.61c-1.85-5.64-5.49-10.29-11.63-12.2-10.53-3.28-16,1.23-13.84,11.74q9.42,47,19.08,93.89C744.68,876.82,745.79,878.5,746.55,880.25Z" transform="translate(-397.93 -733.58)"/>
  <path d="M537.19,821.15c16,11.82,25.69,27.74,32.73,45.14,12.47,30.8,24.29,61.86,36.06,92.93,4.34,11.46,8.12,23.17,11.52,34.95,3.76,13-.6,24.13-11.33,31.55a57.06,57.06,0,0,1-21.87,8.76c-16.51,3-26.86-7.1-35-19.69-10-15.45-16.75-32.46-23-49.69-7.48-20.6-15.62-41-22.6-61.73-5.44-16.19-10.18-32.69-14-49.33a37,37,0,0,1,5.11-28.34c3.36-5.35,7.65-9.52,13.67-11.89,10.06-4,20-8.18,30-12.2,5.23-2.1,9.84-.52,11.86,3.85s.23,9-4.62,11.73C543.12,818.63,540.32,819.71,537.19,821.15ZM597.8,995.39c-1.46-5.95-2.31-12.14-4.47-17.83-11.56-30.5-23.11-61-35.4-91.22a254.09,254.09,0,0,0-17.72-34.5c-3-5.09-8.14-9.25-13-12.91-5.86-4.41-13.85-2.71-15.58,3.06-1.25,4.17-2,9-1.16,13.19a269.63,269.63,0,0,0,7.26,27.9c3.51,11.45,7.15,22.89,11.43,34.06,10,26.26,20.26,52.46,31,78.44,2.27,5.5,6.69,10.27,10.7,14.87,4.46,5.11,10.32,5.52,16.49,3.15C593.77,1011.13,597.35,1004.55,597.8,995.39Z" transform="translate(-397.93 -733.58)"/>
  <path d="M664.59,773.75c1.44,4.06,3.17,8,4.25,12.13,9.84,37.83,20.08,75.57,29.13,113.58,4.6,19.35,9,39.13,9.92,58.89,1.2,25.39-16.39,45.32-43.69,45.25-7.87,0-14.07-3.19-19-9.31-10-12.4-16.68-26.59-21-41.67-9.82-33.87-18.95-68-28.3-102-5-18.1-9.83-36.23-15.12-55.77,4.54-.86,8.91-2.12,13.34-2.43,8-.55,8-.31,10.07,7.38,12.93,47.52,25.7,95.08,38.93,142.51,2.85,10.19,7.08,20,11.25,29.81,2.75,6.43,7.36,11.31,15.36,10.33,8.6-1,16-6.63,16.95-14.63s1.14-16.42-.65-24.13c-10.1-43.43-20.85-86.7-31.47-130-2.53-10.34-5.26-20.63-8.12-30.89-.89-3.18-.68-5,3-5.65C654.3,776.3,659.11,775,664.59,773.75Z" transform="translate(-397.93 -733.58)"/>
  <path d="M1082.12,898.54c-6.75.49-13.39.78-20,1.51-4.38.49-6.15-1.07-6-5.4.13-3.32-.09-6.66-.08-10,0-2.9,1-4.57,4.43-4.47,12.47.37,25,.53,37.42.68,2.68,0,4.38.58,4.59,3.75,1.26,18.36,1.15,36.68-4.1,54.45-1.74,5.92-5,11.61-8.58,16.72a22.73,22.73,0,0,1-17.75,10c-7.73.35-15.67.39-23.23-1-11.86-2.21-18.75-10.7-22.85-21.63-5-13.39-5.18-27.41-5-41.41.24-20.15.74-40.29,1.21-60.44.47-20,.74-39.95,1.73-59.89a107.65,107.65,0,0,1,3.94-23c3.49-12.73,13.12-19.65,25.41-22,14.94-2.91,29.3-1.76,40.12,11.22a36.82,36.82,0,0,1,8.63,20.4c.94,10.26,1,20.6,1.61,30.9.26,4.6-2.52,5.49-6,4.8a68.42,68.42,0,0,1-12.45-3.56c-1.2-.49-2-3.06-2.18-4.76-.78-8.43-.55-17-2.07-25.29-1.94-10.58-5.06-12.4-17.25-13.23a17.21,17.21,0,0,0-17,11.53,43.05,43.05,0,0,0-2.37,12.19c-1.5,36.77-3.09,73.54-4,110.33-.28,11.25,1,22.61,2.49,33.79.61,4.55,3.34,9,5.73,13.09,7,12.09,23.78,12.35,30.18-2.62C1083.72,923.53,1084.42,911.38,1082.12,898.54Z" transform="translate(-397.93 -733.58)"/>
  <path d="M1542.28,1011.57c-9,17.77-17.11,34.93-33.23,46.5-8.58,6.16-15,5.83-24.59,1.39-21.3-9.87-23.5-32.8-17.15-50.55,4.23-11.85,10.26-23.07,15.69-34.47,12.24-25.68,24.28-51.45,37-76.87,7.91-15.76,16.71-31.11,29.38-43.78,8.38-8.37,18-12.59,29.86-8.81,13.7,4.4,21.3,14.3,23.49,28.25a49.84,49.84,0,0,1-5,30.57c-1.11,2.23-2.21,4.47-3.25,6.74-3.1,6.75-4.48,7.23-11.36,3.89-10.39-5-10.44-5.08-5.07-15.23,4-7.53,6.36-15.37,5.11-24-.74-5.09-2.93-9.16-8.12-11s-9.42.27-12.58,3.82c-4.62,5.19-9.53,10.5-12.65,16.6Q1524,935.29,1499,986.43c-5.7,11.75-10.12,24.17-14.54,36.49-1.87,5.21-2,10.81,3.35,14.92,6.3,4.8,11.61,5.05,16.65-1s8.84-12.8,13.06-19.35c2-3.07,3.66-6.33,5.44-9.53s3.94-4.41,7.36-2.59C1534.26,1007.42,1538.19,1009.44,1542.28,1011.57Z" transform="translate(-397.93 -733.58)"/>
  <path d="M1418.66,810.9c-10.2-3-19.57-5.84-29-8.35-3.65-1-4.86-2.55-4.16-6.35,2.44-13.28,3.9-13.76,16.59-9.69,20.11,6.46,40.49,12.06,60.74,18.09,10.68,3.18,10.66,3.23,7.07,13.95-2.24,6.69-2.41,6.76-9.09,4.74s-13.64-4.09-21.1-6.32c-3.13,9.67-6.11,18.95-9.13,28.21q-22.43,68.8-44.9,137.59c-3.3,10.09-6.91,20.07-10.24,30.16-1,3-2.72,4-5.65,3.21-.64-.16-1.3-.3-2-.43-14.71-2.92-14.23-3-9.25-17.11,7-19.9,12.92-40.2,19.38-60.3q15.73-48.93,31.56-97.83C1412.58,830.85,1415.48,821.16,1418.66,810.9Z" transform="translate(-397.93 -733.58)"/>
  <path d="M974.72,735.63c5.06,0,10,.12,15,0,3.47-.12,4.74,1.45,4.84,4.72.32,9.65.93,19.29,1.12,29q.79,39.46,1.32,79,.71,53.92,1.16,107.87c.07,7.68-.13,7.68-7.78,7.73-1.5,0-3,0-4.49,0-8.69-.25-10.46-2-10.49-10.52q-.37-85.21-.7-170.44C974.67,767.21,974.72,751.61,974.72,735.63Z" transform="translate(-397.93 -733.58)"/>
  <path d="M1497.54,819.79c4.63,1.82,8.81,3.39,12.94,5.11,3.46,1.44,4.48,3.62,3,7.47-9.91,25-19.41,50.27-29.42,75.28q-23.82,59.52-48.15,118.83c-4,9.94-4.23,9.87-14.06,5.55-.6-.27-1.23-.51-1.83-.79-6.37-3-6.38-3-3.77-9.56,13.71-34.83,27.21-69.74,41.2-104.45,11.64-28.85,23.86-57.46,35.79-86.19C1494.65,827.53,1495.93,824,1497.54,819.79Z" transform="translate(-397.93 -733.58)"/>
  <path d="M1135.9,1199.69c-4.46-6.64-8.43-12.55-13.24-19.73v29.65h-7.36v-41.74c4.83-1.46,8.39-.65,11,4.33s6,9.55,9.61,15.09c3.38-5.16,6.89-9.72,9.51-14.74,2.54-4.86,5.93-6.26,11.22-4.71v41.84h-7.1v-28.34l-1.07-.28C1144.42,1187,1140.39,1193,1135.9,1199.69Z" transform="translate(-397.93 -733.58)"/>
  <path d="M821.09,1194.11c3.7,5.24,7.13,10.08,10.79,15.25-5.43,1.39-9.48.83-12-4.32-.79-1.62-2.31-2.89-3.08-4.52-2.62-5.52-7-6.38-13-4.91v13.9h-7.53V1167c8.56.43,17.14.32,25.56,1.49,5.33.74,8.44,5,9,10.62.58,5.86-1.42,10.45-6.68,13.4C823.35,1193,822.44,1193.42,821.09,1194.11Zm-17.24-5.83c4.72,0,8.89.32,13-.09,3.86-.4,6.42-2.75,6.41-7s-2.38-6.55-6.44-6.79c-4.24-.24-8.51-.05-13-.05Z" transform="translate(-397.93 -733.58)"/>
  <path d="M908.44,1209.78v-41.86c7.5,0,14.89-.92,21.95.22,10.74,1.73,17.35,11.49,16.48,22.26a20.68,20.68,0,0,1-19.46,19.31C921.3,1210.12,915.15,1209.78,908.44,1209.78Zm7.64-35.43V1203c7.58.4,15,1.43,20.22-5.57a15.34,15.34,0,0,0,.36-16.94C931.61,1172.91,923.92,1174.07,916.08,1174.35Z" transform="translate(-397.93 -733.58)"/>
  <path d="M774.61,1167.63v6.22H751v11.05h20.76v6.84H750.92v11.49H774.7v6.29H743.32v-41.89Z" transform="translate(-397.93 -733.58)"/>
  <path d="M660.66,1184.86v6.79H639.82v11.42h23.72v6.52H632.43v-41.91h31v6.17H639.91v11Z" transform="translate(-397.93 -733.58)"/>
  <path d="M1008.79,1209.36c-5.26,1.61-8.8.69-10-4.9-.82-3.88-3.14-5.5-7.18-4.86a20.31,20.31,0,0,1-6,0c-6.37-.93-10.63.71-12.56,7.66-.48,1.71-4.69,2.38-7.18,3.52l-1-1.52,8.9-20.45c2.66-6.1,5.41-12.16,8-18.31,1-2.41,2.12-3.72,5-3.71s4.09,1.22,5.12,3.62C997.44,1183.4,1003.11,1196.32,1008.79,1209.36Zm-22.1-33.28c-2.61,6.09-4.77,11.16-7.08,16.55h14.21Z" transform="translate(-397.93 -733.58)"/>
  <path d="M1176.41,1210.2c3.43-7.92,6.45-14.9,9.48-21.87,2.59-5.94,5.3-11.83,7.76-17.83,1-2.42,2.26-4.39,5-3.48,1.88.62,4.24,1.87,5,3.48,5.86,12.82,11.38,25.8,17,38.78-5.36,1.82-8.79.64-10-4.88-.84-3.92-3.22-5.39-7.2-4.8a22.69,22.69,0,0,1-6.48,0c-6-.86-10.12.73-11.61,7.29C1184.28,1211.92,1180.2,1209.27,1176.41,1210.2Zm29.36-17.51c-2.41-5.58-4.6-10.66-7.18-16.66l-7,16.66Z" transform="translate(-397.93 -733.58)"/>
  <path d="M872.69,1209.7h-7.22a6.55,6.55,0,0,1-.49-2.29c1.9-10.87-2.51-19.65-8.9-27.91-2.71-3.51-4.9-7.42-7.67-11.67,5.24-1,9.05-1.12,11.61,4.16,2.29,4.73,5.56,9,8.82,14.09l8.84-13.76c3.6-5.61,3.59-5.61,11.42-4.38-4.13,6.25-7.91,12.47-12.2,18.32-3.2,4.38-4.85,8.89-4.27,14.33A85.93,85.93,0,0,1,872.69,1209.7Z" transform="translate(-397.93 -733.58)"/>
  <path d="M1065.27,1167.9c-4.22,6.42-7.88,12.55-12.12,18.25-3.36,4.51-5,9.19-4.39,14.78a86.23,86.23,0,0,1,0,8.69h-7.1c-.23-.7-.58-1.2-.5-1.62,2.35-12.31-3.74-21.7-10.55-30.89-2.07-2.78-3.83-5.78-6.08-9.21,5-1,8.82-1.38,11.45,3.86,2.36,4.72,5.59,9,9,14.3,3.1-4.81,6.31-9,8.64-13.58C1056.11,1167.54,1059.64,1166.38,1065.27,1167.9Z" transform="translate(-397.93 -733.58)"/>
  <path d="M1308.05,1209.69h-6.85v-42.07h6.85Z" transform="translate(-397.93 -733.58)"/>
</svg>
