<svg id="Layer_1" data-name="Layer 1" xmlns="http://www.w3.org/2000/svg" viewBox="0 0 712.61 244.66">
  <path d="M819.61,900.47c5.34.46,10.73.58,16,1.46,11.51,1.92,23.2,3.36,34.36,6.58,25,7.2,40.51,24.1,45.9,49.51a219.81,219.81,0,0,1,.52,88.17c-5.71,29.49-24.45,46.46-53.07,53.45-20.45,5-41.27,5.85-62.19,5.58-18.86-.24-37.53-1.89-56-7.82v47.73H695.56V983.87a20.93,20.93,0,0,0,.63-2.54c1-7,1.55-14.15,2.93-21.11,5.34-27,21-45,47.67-52.4,10.33-2.87,21.1-4.16,31.71-5.91,4.92-.81,10-1,14.92-1.44Zm-74.76,101c.64,7.55.95,14,1.76,20.33,2.46,19.14,12.75,30.84,31.41,34.93a141.81,141.81,0,0,0,59.76.12c17-3.53,27.62-13.8,30.69-31.13a131.81,131.81,0,0,0,.19-43.82c-2.73-17.28-12.52-28.34-29.52-32.27a137.64,137.64,0,0,0-63.06-.13c-16.12,3.78-25.93,14.15-28.77,30.53C746,987.49,745.57,995.06,744.85,1001.5Z" transform="translate(-695.56 -900.47)"/>
  <path d="M1408.17,1032.11c-1.23,6.15-2.24,12.35-3.74,18.43-6.74,27.29-25,42.52-51.56,49.12-20.69,5.14-41.75,5.86-62.9,5.56-17-.24-33.86-1.72-50.4-6.12-28.88-7.67-46.31-26.08-51.62-55.4a228,228,0,0,1,0-82.49c5.61-30.48,24.49-48.24,54.25-55.17a202.83,202.83,0,0,1,42.65-4.93c20.67-.35,41.32-.06,61.68,4.21,12.44,2.62,24.32,6.68,34.69,14.34,13.79,10.2,20.64,24.52,24.13,40.8,1.08,5,1.86,10.09,2.78,15.14v2.75a4.06,4.06,0,0,1-1,.27c-16.08,0-32.15.09-48.22,0-.84,0-2.15-1.45-2.43-2.45-3.65-13-11.91-21.71-24.82-25.34a131,131,0,0,0-67.65-.88c-15.4,3.79-24.58,14.06-27.64,29.64a125.33,125.33,0,0,0-.61,43.15c2.9,19.17,12.88,30.1,31.79,34.17a141.88,141.88,0,0,0,59.11,0c14.64-3,25.37-10.94,29.55-26,.66-2.37,2.23-1.88,3.73-1.88q22.4,0,44.78,0a32.59,32.59,0,0,1,3.4.33Z" transform="translate(-695.56 -900.47)"/>
  <path d="M1049.75,1105.29c-15.87-.07-35.17-1.13-54.08-6.21-28.53-7.67-45.93-25.74-51.38-54.84a229.83,229.83,0,0,1-.34-81.83c5.36-31.06,24.22-49.4,54.65-56.41a203.61,203.61,0,0,1,42.66-4.89c20.56-.35,41.1-.08,61.34,4.22,14.43,3.07,28,8,39.16,18.15,11.32,10.35,17.21,23.7,19.84,38.45,5.08,28.5,5.29,57.11-.44,85.53-6.06,30-25.78,46.4-54.84,52.89C1088.85,1104.25,1071.13,1105.26,1049.75,1105.29ZM990,1000.61c.5,7.87.69,13.61,1.27,19.31,2,20,11.81,32.07,30.85,36.55a134.82,134.82,0,0,0,63.4-.33c14.79-3.6,24.33-13,27.51-28.06,3.31-15.66,3.09-31.44.38-47.19-2.85-16.53-12.42-27.16-28.68-31a135.17,135.17,0,0,0-64.38-.07c-15.51,3.81-25.05,13.93-27.9,29.72C991.07,987.14,990.62,994.94,990,1000.61Z" transform="translate(-695.56 -900.47)"/>
</svg>
