<svg width="506" height="360" viewBox="0 0 506 360" fill="none" xmlns="http://www.w3.org/2000/svg">
<g clipPath="url(#clip0)">
<path d="M46.9531 66.7256C53.6368 69.9068 60.0358 69.0269 66.3544 65.5689C71.2 62.9169 76.0457 64.3382 80.5881 66.3564C83.3111 67.5871 84.7592 67.261 86.2878 64.6459C91.8204 55.1393 99.618 48.1677 110.207 44.5866C131.663 37.332 155.65 48.4938 163.54 70.6944C164.852 74.3863 165.056 78.4966 165.545 82.4346C165.811 84.5452 165.595 86.7418 165.595 89.2031H176.468C175.546 93.3688 174.816 97.0915 173.807 100.746C173.683 101.189 172.062 101.466 171.164 101.399C170.267 101.331 169.246 100.74 168.274 100.426C163.843 99.0112 163.806 98.9989 161.609 102.998C155.953 113.317 147.815 120.892 136.545 124.676C129.512 127.163 121.905 127.569 114.644 125.845C104.037 123.267 95.515 117.791 89.1036 109.022C83.6886 101.577 81.3679 93.1104 81.2132 84.0283C81.077 76.1031 77.9332 72.7127 69.9623 72.0912C64.3183 71.6543 58.6681 71.1867 53.0551 70.4729C50.9695 70.2145 48.983 69.2423 46.9531 68.5716V66.7256Z" fill="#F8C9E9" fill-opacity="0.8"/>
<path d="M214.095 128.232C221.571 127.844 228.422 127.334 235.279 127.174C244.351 126.958 252.997 129.174 261.228 132.785C265.708 134.748 269.842 137.499 274.335 139.419C275.957 140.108 278.302 139.8 280.109 139.259C292.486 135.567 305.167 134.638 317.952 134.613C326.821 134.613 335.584 135.579 344.087 138.496C347.088 139.523 347.8 141.172 347.379 143.978C345.355 156.574 343.468 169.206 341.351 181.777C339.597 192.145 338.749 202.644 338.814 213.158C339.062 252.23 338.969 291.303 339.074 330.375C339.074 339.088 339.34 347.801 339.606 356.514C339.674 358.784 338.987 359.523 336.642 359.511C289.918 359.26 243.196 359.055 196.476 358.895C195.369 358.895 194.261 358.772 192.763 358.686L196.743 338.941C198.847 328.536 200.901 318.118 203.067 307.732C205.122 297.85 207.344 288.005 209.404 278.123C211.465 268.241 213.359 258.482 215.389 248.674C217.499 238.497 219.721 228.338 221.825 218.167C222.512 214.862 223.483 211.558 223.626 208.229C223.7 206.476 222.685 204.285 221.454 202.925C209.312 189.499 197.083 176.153 184.768 162.887C178.523 156.143 172.174 149.497 165.985 142.68C165.585 142.147 165.31 141.531 165.182 140.878C165.053 140.225 165.074 139.552 165.243 138.908C168.603 130.293 172.199 121.679 175.695 113.108C179.105 104.721 182.571 96.3526 185.813 87.8797C186.791 85.32 188.048 84.4032 190.913 84.4217C211.744 84.5693 232.581 84.4955 253.418 84.4955H257.576C256.79 87.7197 256.339 90.581 255.398 93.2945C251.134 105.89 242.043 113.243 229.338 116.4C225.934 117.179 222.478 117.715 218.997 118.006C216.602 118.258 215.191 119.052 215.03 121.667C214.875 123.943 214.405 126.177 214.095 128.232Z" fill="#F8C9E9" fill-opacity="0.8"/>
<path d="M505.435 46.2664C504.42 49.2876 503.535 52.358 502.341 55.3239C498.157 65.975 493.256 76.2815 486.473 85.5789C482.005 91.732 477.265 97.7006 470.203 101.011C467.66 102.205 464.516 102.112 461.651 102.629C460.184 102.894 458.507 102.851 457.319 103.577C453.321 106.038 449.496 108.782 445.059 111.785L494.525 123.249C491.715 126.473 487.829 128.725 483.719 130.275C468.712 135.949 453.736 135.112 438.951 129.254C436.971 128.466 434.848 127.746 433.22 126.46C430.962 124.67 429.117 122.369 427.354 120.553L389.795 127.322C406.548 136.152 418.126 150.753 434 161.78C431.246 162.198 429.408 162.758 427.595 162.696C417.296 162.424 407.223 159.639 398.261 154.586C390.445 150.193 383.093 145.184 377.164 138.361C374.491 135.284 372.331 132.004 372.418 127.697C372.461 125.531 370.815 125.531 369.224 125.236C363.698 124.264 358.159 123.322 352.707 122.018C351.209 121.661 350.009 120.073 348.672 119.052L349.117 117.643C351.061 117.514 353.029 117.12 354.935 117.305C368.964 118.677 382.957 120.566 397.11 119.766C398.224 119.704 399.344 119.766 400.248 119.766C400.576 119.31 400.811 119.15 400.792 118.99C399.858 109.145 404.92 101.823 410.929 94.9378C420.701 83.7391 433.307 76.6507 446.761 70.8482C448.24 70.2329 449.855 69.8761 452.331 69.1254C443.165 86.8526 432.732 102.752 418.696 116.197L419.222 116.905C422.013 116.055 424.952 115.526 427.564 114.308C436.356 110.206 445.072 105.94 453.711 101.509C454.788 100.962 455.926 99.0912 455.827 97.9283C455.041 88.397 460.265 81.7086 466.794 76.1523C479.072 65.6919 491.82 55.81 504.371 45.6819L505.435 46.2664Z" fill="#F8C9E9" fill-opacity="0.8"/>
<path d="M304.293 82.4271C304.293 93.3921 304.293 104.363 304.293 115.328C304.293 121.155 300.351 125.105 294.472 125.007C290.189 124.933 285.808 124.89 281.662 124.066C278.023 123.352 276.092 120.441 276.092 116.608C276.092 93.5582 276.106 70.5105 276.135 47.4649C276.135 43.8838 278.778 40.6288 282.249 40.4257C287.582 40.1201 292.929 40.1407 298.259 40.4873C301.607 40.6965 304.368 44.616 304.386 48.6094C304.454 59.882 304.386 71.1546 304.386 82.4517L304.293 82.4271Z" fill="#F8C9E9" fill-opacity="0.8"/>
<path d="M314.188 89.0912C314.188 80.0707 314.188 71.0501 314.188 62.0173C314.188 57.4147 316.837 54.5966 321.553 54.412C325.885 54.2459 330.217 54.252 334.549 54.4797C339.784 54.7504 342.545 57.7655 342.557 62.9834C342.582 80.5075 342.582 98.0338 342.557 115.562C342.557 120.995 338.516 124.921 333.002 124.995C329.8 125.036 326.605 125.036 323.416 124.995C318.001 124.933 314.232 121.204 314.213 115.82C314.176 106.905 314.213 97.9763 314.213 89.0727L314.188 89.0912Z" fill="#F8C9E9" fill-opacity="0.8"/>
<path d="M242.117 119.779C258.028 110.223 265.213 96.2182 264.811 77.7772C257.805 77.5311 251.041 77.248 244.277 77.0696C238.218 76.9157 237.996 76.9711 237.884 70.9472C237.748 63.0896 237.921 55.2197 238.132 47.3622C238.225 43.9103 240.768 40.6983 244.048 40.483C249.474 40.1168 254.919 40.1291 260.343 40.5199C263.746 40.7783 266.451 44.4209 266.457 47.959C266.498 70.7216 266.498 93.4882 266.457 116.259C266.457 120.745 260.955 124.363 256.06 123.231C251.592 122.184 247.155 121.022 242.117 119.779Z" fill="#F8C9E9" fill-opacity="0.8"/>
<path d="M228.039 77.7097H206.274C199.968 77.7097 199.968 77.7097 199.968 71.3412C199.968 64.0621 199.968 56.789 199.968 49.5098C199.968 43.1475 201.967 40.7293 208.434 40.194C212.842 39.8997 217.268 39.9717 221.665 40.4093C225.378 40.7231 227.922 43.0737 228.064 46.7655C228.454 56.6906 228.423 66.6279 228.534 76.5653C228.547 76.8421 228.311 77.119 228.039 77.7097Z" fill="#F8C9E9" fill-opacity="0.8"/>
</g>
<g clipPath="url(#clip1)">
<path d="M23.4805 46.7256C30.1641 49.9068 36.5631 49.0269 42.8817 45.5689C47.7274 42.9169 52.573 44.3382 57.1155 46.3564C59.8384 47.5871 61.2866 47.261 62.8152 44.6459C68.3478 35.1393 76.1454 28.1677 86.7341 24.5866C108.19 17.332 132.177 28.4938 140.067 50.6944C141.379 54.3863 141.584 58.4966 142.072 62.4346C142.339 64.5452 142.122 66.7418 142.122 69.2031H152.995C152.073 73.3688 151.343 77.0915 150.334 80.7464C150.21 81.1895 148.589 81.4664 147.692 81.3987C146.794 81.331 145.773 80.7403 144.802 80.4265C140.371 79.0112 140.333 78.9989 138.137 82.9985C132.48 93.3173 124.342 100.892 113.073 104.676C106.039 107.163 98.4319 107.569 91.1713 105.845C80.5641 103.267 72.0424 97.7907 65.631 89.0224C60.216 81.5771 57.8952 73.1104 57.7405 64.0283C57.6044 56.1031 54.4606 52.7127 46.4897 52.0912C40.8457 51.6543 35.1955 51.1867 29.5824 50.4729C27.4969 50.2145 25.5103 49.2423 23.4805 48.5716V46.7256Z" fill="#4DDBFE" fill-opacity="0.6"/>
<path d="M190.625 108.231C198.1 107.844 204.951 107.333 211.808 107.173C220.881 106.958 229.526 109.173 237.757 112.785C242.237 114.748 246.371 117.498 250.864 119.418C252.486 120.107 254.831 119.799 256.638 119.258C269.016 115.566 281.696 114.637 294.482 114.612C303.35 114.612 312.113 115.578 320.616 118.495C323.618 119.522 324.329 121.171 323.908 123.977C321.885 136.573 319.997 149.205 317.881 161.776C316.127 172.144 315.278 182.644 315.343 193.157C315.591 232.23 315.498 271.302 315.603 310.375C315.603 319.087 315.869 327.8 316.136 336.513C316.204 338.784 315.517 339.522 313.171 339.51C266.447 339.26 219.725 339.054 173.006 338.895C171.898 338.895 170.79 338.771 169.293 338.685L173.272 318.94C175.376 308.535 177.431 298.118 179.597 287.731C181.651 277.849 183.873 268.004 185.934 258.122C187.994 248.24 189.888 238.481 191.918 228.673C194.028 218.496 196.25 208.337 198.354 198.166C199.041 194.862 200.013 191.557 200.155 188.228C200.229 186.475 199.214 184.284 197.983 182.924C185.841 169.498 173.612 156.152 161.297 142.886C155.053 136.142 148.703 129.497 142.515 122.679C142.114 122.146 141.84 121.53 141.711 120.877C141.583 120.224 141.603 119.551 141.772 118.907C145.132 110.293 148.728 101.678 152.224 93.1069C155.634 84.7202 159.1 76.3519 162.343 67.879C163.321 65.3193 164.577 64.4025 167.442 64.4209C188.273 64.5686 209.11 64.4948 229.947 64.4948H234.106C233.32 67.719 232.868 70.5802 231.927 73.2938C227.663 85.8893 218.572 93.2423 205.867 96.3989C202.463 97.1778 199.007 97.7145 195.526 98.0048C193.131 98.2571 191.72 99.0509 191.559 101.666C191.404 103.943 190.934 106.176 190.625 108.231Z" fill="#4DDBFE" fill-opacity="0.6"/>
<path d="M481.964 26.2662C480.949 29.2874 480.064 32.3578 478.87 35.3236C474.687 45.9747 469.785 56.2812 463.003 65.5786C458.534 71.7318 453.794 77.7004 446.733 81.0108C444.189 82.2045 441.045 82.1122 438.18 82.629C436.713 82.8936 435.036 82.8505 433.848 83.5766C429.85 86.0379 426.026 88.7822 421.589 91.7849L471.054 103.248C468.244 106.473 464.358 108.725 460.249 110.275C445.241 115.948 430.265 115.112 415.48 109.254C413.5 108.466 411.377 107.746 409.75 106.46C407.491 104.67 405.647 102.368 403.883 100.553L366.324 107.322C383.077 116.151 394.656 130.753 410.529 141.779C407.776 142.198 405.937 142.758 404.124 142.696C393.826 142.424 383.752 139.639 374.79 134.586C366.974 130.193 359.622 125.184 353.693 118.36C351.02 115.284 348.86 112.004 348.947 107.697C348.99 105.531 347.344 105.531 345.753 105.236C340.227 104.264 334.688 103.322 329.236 102.018C327.739 101.661 326.538 100.073 325.201 99.0518L325.647 97.6427C327.59 97.5135 329.558 97.1197 331.464 97.3043C345.494 98.6764 359.486 100.565 373.639 99.7656C374.753 99.704 375.873 99.7656 376.777 99.7656C377.105 99.3102 377.34 99.1502 377.321 98.9903C376.387 89.1452 381.449 81.823 387.458 74.9376C397.23 63.7389 409.836 56.6504 423.29 50.848C424.769 50.2327 426.385 49.8758 428.86 49.1251C419.695 66.8524 409.261 82.7521 395.225 96.1967L395.751 96.9044C398.542 96.0552 401.482 95.526 404.093 94.3077C412.885 90.2056 421.601 85.9394 430.24 81.5092C431.317 80.9615 432.456 79.091 432.357 77.928C431.571 68.3968 436.794 61.7083 443.323 56.152C455.601 45.6917 468.349 35.8097 480.9 25.6816L481.964 26.2662Z" fill="#4DDBFE" fill-opacity="0.6"/>
<path d="M280.823 62.4269C280.823 73.3918 280.823 84.3629 280.823 95.3278C280.823 101.155 276.88 105.105 271.001 105.007C266.719 104.933 262.337 104.89 258.191 104.065C254.552 103.352 252.621 100.441 252.621 96.6077C252.621 73.5579 252.636 50.5103 252.664 27.4647C252.664 23.8835 255.307 20.6285 258.779 20.4255C264.112 20.1198 269.458 20.1404 274.789 20.487C278.137 20.6962 280.897 24.6158 280.915 28.6092C280.983 39.8817 280.915 51.1543 280.915 62.4515L280.823 62.4269Z" fill="#4DDBFE" fill-opacity="0.6"/>
<path d="M290.719 69.0912C290.719 60.0707 290.719 51.0501 290.719 42.0173C290.719 37.4147 293.367 34.5966 298.083 34.412C302.415 34.2459 306.747 34.252 311.079 34.4797C316.315 34.7504 319.075 37.7655 319.087 42.9834C319.112 60.5075 319.112 78.0338 319.087 95.5621C319.087 100.995 315.046 104.921 309.532 104.995C306.33 105.036 303.135 105.036 299.946 104.995C294.531 104.933 290.762 101.204 290.743 95.8205C290.706 86.9046 290.743 77.9763 290.743 69.0727L290.719 69.0912Z" fill="#4DDBFE" fill-opacity="0.6"/>
<path d="M218.646 99.7793C234.556 90.2235 241.741 76.2189 241.339 57.7779C234.334 57.5318 227.57 57.2487 220.805 57.0703C214.747 56.9165 214.524 56.9719 214.413 50.9479C214.276 43.0904 214.45 35.2205 214.66 27.3629C214.753 23.911 217.297 20.699 220.576 20.4837C226.002 20.1175 231.447 20.1299 236.871 20.5206C240.275 20.779 242.979 24.4217 242.985 27.9597C243.027 50.7223 243.027 73.489 242.985 96.2597C242.985 100.745 237.484 104.363 232.589 103.231C228.12 102.185 223.683 101.022 218.646 99.7793Z" fill="#4DDBFE" fill-opacity="0.6"/>
<path d="M204.566 57.711H182.8C176.494 57.711 176.494 57.711 176.494 51.3425C176.494 44.0633 176.494 36.7902 176.494 29.511C176.494 23.1487 178.493 20.7305 184.96 20.1952C189.369 19.9009 193.795 19.9729 198.191 20.4106C201.904 20.7244 204.448 23.0749 204.59 26.7668C204.98 36.6918 204.949 46.6291 205.061 56.5665C205.073 56.8434 204.838 57.1202 204.566 57.711Z" fill="#4DDBFE" fill-opacity="0.6"/>
</g>
<g clipPath="url(#clip2)">
<path d="M0.00976562 26.7254C6.69345 29.9066 13.0924 29.0267 19.411 25.5686C24.2567 22.9166 29.1023 24.338 33.6448 26.3562C36.3677 27.5868 37.8159 27.2607 39.3445 24.6456C44.8771 15.139 52.6747 8.16747 63.2634 4.58634C84.7192 -2.66823 108.706 8.49359 116.597 30.6942C117.909 34.3861 118.113 38.4964 118.602 42.4344C118.868 44.5449 118.651 46.7416 118.651 49.2029H129.525C128.603 53.3686 127.872 57.0912 126.864 60.7462C126.74 61.1892 125.118 61.4661 124.221 61.3984C123.324 61.3307 122.303 60.74 121.331 60.4262C116.9 59.011 116.863 58.9987 114.666 62.9982C109.009 73.3171 100.871 80.8916 89.602 84.6758C82.5688 87.1627 74.9612 87.5688 67.7006 85.8449C57.0934 83.2667 48.5716 77.7904 42.1603 69.0222C36.7452 61.5769 34.4245 53.1101 34.2698 44.0281C34.1337 36.1028 30.9899 32.7124 23.019 32.0909C17.375 31.6541 11.7248 31.1864 6.11171 30.4727C4.02615 30.2142 2.03962 29.242 0.00976562 28.5713V26.7254Z" fill="#242424" fill-opacity="0.97"/>
<path d="M167.158 88.2323C174.634 87.8447 181.484 87.334 188.341 87.174C197.414 86.9586 206.059 89.1738 214.29 92.7857C218.771 94.7485 222.905 97.499 227.398 99.4188C229.019 100.108 231.364 99.8002 233.172 99.2588C245.549 95.5669 258.229 94.6378 271.015 94.6131C279.883 94.6131 288.646 95.5792 297.149 98.4958C300.151 99.5234 300.862 101.172 300.442 103.978C298.418 116.574 296.53 129.206 294.414 141.777C292.66 152.145 291.811 162.645 291.877 173.158C292.124 212.231 292.031 251.303 292.136 290.376C292.136 299.088 292.403 307.801 292.669 316.514C292.737 318.785 292.05 319.523 289.704 319.511C242.98 319.261 196.259 319.055 149.539 318.895C148.431 318.895 147.323 318.772 145.826 318.686L149.805 298.941C151.909 288.536 153.964 278.119 156.13 267.732C158.184 257.85 160.406 248.005 162.467 238.123C164.528 228.241 166.421 218.482 168.451 208.674C170.562 198.497 172.783 188.338 174.887 178.167C175.574 174.863 176.546 171.558 176.688 168.229C176.763 166.476 175.748 164.285 174.516 162.925C162.374 149.499 150.145 136.153 137.83 122.887C131.586 116.143 125.236 109.498 119.048 102.68C118.647 102.147 118.373 101.531 118.244 100.878C118.116 100.225 118.136 99.5519 118.305 98.908C121.665 90.2936 125.261 81.6792 128.758 73.1079C132.168 64.7211 135.633 56.3529 138.876 47.88C139.854 45.3203 141.11 44.4034 143.975 44.4219C164.806 44.5696 185.643 44.4957 206.48 44.4957H210.639C209.853 47.72 209.401 50.5812 208.46 53.2947C204.197 65.8902 195.106 73.2433 182.4 76.3998C178.996 77.1788 175.54 77.7154 172.059 78.0058C169.664 78.2581 168.253 79.0518 168.092 81.6669C167.938 83.9436 167.467 86.1772 167.158 88.2323Z" fill="#242424" fill-opacity="0.97"/>
<path d="M458.495 6.2664C457.48 9.2876 456.595 12.358 455.4 15.3239C451.217 25.975 446.315 36.2815 439.533 45.5789C435.065 51.732 430.324 57.7006 423.263 61.011C420.72 62.2047 417.576 62.1124 414.71 62.6293C413.244 62.8939 411.567 62.8508 410.378 63.5769C406.381 66.0381 402.556 68.7824 398.119 71.7852L447.584 83.2485C444.775 86.4728 440.888 88.7248 436.779 90.2754C421.772 95.9486 406.795 95.1117 392.011 89.2539C390.03 88.4663 387.908 87.7464 386.28 86.4604C384.021 84.6699 382.177 82.3686 380.413 80.5534L342.855 87.3219C359.607 96.1517 371.186 110.753 387.06 121.78C384.306 122.198 382.468 122.758 380.655 122.696C370.356 122.424 360.282 119.639 351.321 114.586C343.504 110.193 336.152 105.184 330.224 98.3606C327.55 95.2841 325.39 92.0044 325.477 87.6972C325.52 85.5313 323.874 85.5313 322.284 85.236C316.757 84.2638 311.219 83.3223 305.766 82.0179C304.269 81.661 303.068 80.0735 301.731 79.052L302.177 77.643C304.12 77.5137 306.088 77.1199 307.994 77.3045C322.024 78.6767 336.016 80.5657 350.17 79.7658C351.284 79.7043 352.404 79.7658 353.307 79.7658C353.635 79.3105 353.87 79.1505 353.852 78.9905C352.917 69.1455 357.98 61.8232 363.989 54.9378C373.76 43.7391 386.367 36.6507 399.821 30.8482C401.3 30.2329 402.915 29.8761 405.39 29.1254C396.225 46.8526 385.791 62.7523 371.755 76.197L372.281 76.9046C375.072 76.0555 378.012 75.5263 380.624 74.308C389.416 70.2059 398.131 65.9397 406.77 61.5094C407.847 60.9618 408.986 59.0912 408.887 57.9283C408.101 48.397 413.324 41.7086 419.853 36.1523C432.131 25.6919 444.88 15.81 457.43 5.68188L458.495 6.2664Z" fill="#242424" fill-opacity="0.97"/>
<path d="M257.353 42.4271C257.353 53.3921 257.353 64.3631 257.353 75.328C257.353 81.1551 253.411 85.1054 247.531 85.007C243.249 84.9331 238.867 84.89 234.721 84.0655C231.082 83.3518 229.151 80.4413 229.151 76.6079C229.151 53.5582 229.166 30.5105 229.195 7.46492C229.195 3.88379 231.837 0.62877 235.309 0.425716C240.642 0.120092 245.989 0.140664 251.319 0.48727C254.667 0.696477 257.427 4.61601 257.446 8.6094C257.514 19.882 257.446 31.1546 257.446 42.4517L257.353 42.4271Z" fill="#242424" fill-opacity="0.97"/>
<path d="M267.25 49.0914C267.25 40.0709 267.25 31.0504 267.25 22.0175C267.25 17.415 269.899 14.5969 274.614 14.4123C278.946 14.2461 283.278 14.2523 287.61 14.4799C292.846 14.7507 295.606 17.7657 295.618 22.9836C295.643 40.5078 295.643 58.034 295.618 75.5623C295.618 80.9955 291.577 84.9212 286.063 84.9951C282.862 85.0361 279.666 85.0361 276.477 84.9951C271.062 84.9335 267.293 81.2047 267.275 75.8207C267.238 66.9048 267.275 57.9766 267.275 49.0729L267.25 49.0914Z" fill="#242424" fill-opacity="0.97"/>
<path d="M195.178 79.7784C211.089 70.2225 218.274 56.2179 217.871 37.777C210.866 37.5308 204.102 37.2478 197.338 37.0693C191.279 36.9155 191.056 36.9709 190.945 30.947C190.809 23.0894 190.982 15.2195 191.192 7.36193C191.285 3.91001 193.829 0.698071 197.109 0.48271C202.534 0.116565 207.979 0.1289 213.403 0.519628C216.807 0.77806 219.511 4.4207 219.518 7.95877C219.559 30.7213 219.559 53.488 219.518 76.2587C219.518 80.7444 214.016 84.3625 209.121 83.2303C204.653 82.1842 200.215 81.0213 195.178 79.7784Z" fill="#242424" fill-opacity="0.97"/>
<path d="M181.096 37.7102H159.331C153.024 37.7102 153.024 37.7102 153.024 31.3417C153.024 24.0625 153.024 16.7895 153.024 9.51031C153.024 3.14796 155.023 0.729796 161.49 0.194472C165.899 -0.0998375 170.325 -0.0278157 174.722 0.409818C178.435 0.723628 180.978 3.07414 181.121 6.76603C181.51 16.6911 181.479 26.6284 181.591 36.5657C181.603 36.8426 181.368 37.1195 181.096 37.7102Z" fill="#242424" fill-opacity="0.97"/>
</g>
<defs>
<clipPath id="clip0">
<rect width="458.47" height="319.539" fill="white" transform="translate(46.9395 40)"/>
</clipPath>
<clipPath id="clip1">
<rect width="458.47" height="319.539" fill="white" transform="translate(23.4697 20)"/>
</clipPath>
<clipPath id="clip2">
<rect width="458.47" height="319.539" fill="white"/>
</clipPath>
</defs>
</svg>
