<svg id="Layer_1" data-name="Layer 1" xmlns="http://www.w3.org/2000/svg" viewBox="0 0 740.83 519.31">
  <title>PPRLogo</title>
  <path d="M653.64,716.47c10.8,5.17,21.14,3.74,31.35-1.88,7.83-4.31,15.66-2,23,1.28,4.4,2,6.74,1.47,9.21-2.78,8.94-15.45,21.54-26.78,38.65-32.6,34.67-11.79,73.43,6.35,86.18,42.43,2.12,6,2.45,12.68,3.24,19.08.43,3.43.08,7,.08,11h17.57c-1.49,6.77-2.67,12.82-4.3,18.76-.2.72-2.82,1.17-4.27,1.06s-3.1-1.07-4.67-1.58c-7.16-2.3-7.22-2.32-10.77,4.18-9.14,16.77-22.29,29.08-40.5,35.23a62.38,62.38,0,0,1-35.39,1.9c-17.14-4.19-30.91-13.09-41.27-27.34C713,773.11,709.25,759.35,709,744.59c-.22-12.88-5.3-18.39-18.18-19.4-9.12-.71-18.25-1.47-27.32-2.63-3.37-.42-6.58-2-9.86-3.09Z" transform="translate(-653.64 -673.03)"/>
  <path d="M923.74,816.44c12.08-.63,23.15-1.46,34.23-1.72,14.66-.35,28.63,3.25,41.93,9.12,7.24,3.19,13.92,7.66,21.18,10.78,2.62,1.12,6.41.62,9.33-.26,20-6,40.49-7.51,61.15-7.55,14.33,0,28.49,1.57,42.23,6.31,4.85,1.67,6,4.35,5.32,8.91-3.27,20.47-6.32,41-9.74,61.43a296.4,296.4,0,0,0-4.1,51c.4,63.5.25,127,.42,190.5,0,14.16.43,28.32.86,42.48.11,3.69-1,4.89-4.79,4.87q-113.25-.61-226.49-1c-1.79,0-3.58-.2-6-.34l6.43-32.09c3.4-16.91,6.72-33.84,10.22-50.72,3.32-16.06,6.91-32.06,10.24-48.12s6.39-31.92,9.67-47.86c3.41-16.54,7-33.05,10.4-49.58,1.11-5.37,2.68-10.74,2.91-16.15.12-2.85-1.52-6.41-3.51-8.62q-29.43-32.73-59.28-65.07C866.26,861.8,856,851,846,839.92a7.21,7.21,0,0,1-1.2-6.13c5.43-14,11.24-28,16.89-41.93,5.51-13.63,11.11-27.23,16.35-41,1.58-4.16,3.61-5.65,8.24-5.62,33.66.24,67.33.12,101,.12H994c-1.27,5.24-2,9.89-3.52,14.3-6.89,20.47-21.58,32.42-42.11,37.55a118.79,118.79,0,0,1-16.71,2.61c-3.87.41-6.15,1.7-6.41,5.95C925,809.47,924.24,813.1,923.74,816.44Z" transform="translate(-653.64 -673.03)"/>
  <path d="M1394.47,683.23c-1.64,4.91-3.07,9.9-5,14.72-6.76,17.31-14.68,34.06-25.64,49.17-7.22,10-14.88,19.7-26.29,25.08-4.11,1.94-9.19,1.79-13.82,2.63-2.37.43-5.08.36-7,1.54-6.46,4-12.64,8.46-19.81,13.34l79.93,18.63c-4.54,5.24-10.82,8.9-17.46,11.42-24.25,9.22-48.45,7.86-72.34-1.66-3.2-1.28-6.63-2.45-9.26-4.54-3.65-2.91-6.63-6.65-9.48-9.6l-60.69,11c27.07,14.35,45.78,38.08,71.43,56-4.45.68-7.42,1.59-10.35,1.49a101.56,101.56,0,0,1-47.4-13.18c-12.63-7.14-24.51-15.28-34.09-26.37-4.32-5-7.81-10.33-7.67-17.33.07-3.52-2.59-3.52-5.16-4-8.93-1.58-17.88-3.11-26.69-5.23-2.42-.58-4.36-3.16-6.52-4.82l.72-2.29c3.14-.21,6.32-.85,9.4-.55,22.67,2.23,45.28,5.3,68.15,4,1.8-.1,3.61,0,5.07,0,.53-.74.91-1,.88-1.26-1.51-16,6.67-27.9,16.38-39.09,15.79-18.2,36.16-29.72,57.9-39.15,2.39-1,5-1.58,9-2.8-14.81,28.81-31.67,54.65-54.35,76.5l.85,1.15c4.51-1.38,9.26-2.24,13.48-4.22q21.31-10,42.25-20.8c1.74-.89,3.58-3.93,3.42-5.82-1.27-15.49,7.17-26.36,17.72-35.39,19.84-17,40.44-33.06,60.72-49.52Z" transform="translate(-653.64 -673.03)"/>
  <path d="M1069.48,742c0,17.82,0,35.65,0,53.47,0,9.47-6.37,15.89-15.87,15.73-6.92-.12-14-.19-20.7-1.53-5.88-1.16-9-5.89-9-12.12q0-56.19.07-112.37c0-5.82,4.27-11.11,9.88-11.44a210.66,210.66,0,0,1,25.87.1c5.41.34,9.87,6.71,9.9,13.2.11,18.32,0,36.64,0,55Z" transform="translate(-653.64 -673.03)"/>
  <path d="M1085.43,752.82c0-14.66,0-29.32,0-44,0-7.48,4.28-12.06,11.9-12.36,7-.27,14-.26,21,.11,8.46.44,12.92,5.34,12.94,13.82q.06,42.72,0,85.45c0,8.83-6.53,15.21-15.44,15.33q-7.76.1-15.49,0c-8.75-.1-14.84-6.16-14.87-14.91-.06-14.49,0-29,0-43.47Z" transform="translate(-653.64 -673.03)"/>
  <path d="M969,802.7c25.71-15.53,37.32-38.29,36.67-68.26-11.32-.4-22.25-.86-33.18-1.15-9.79-.25-10.15-.16-10.33-9.95-.22-12.77.06-25.56.4-38.33.15-5.61,4.26-10.83,9.56-11.18a188.1,188.1,0,0,1,26.33.06c5.5.42,9.87,6.34,9.88,12.09q.1,55.49,0,111c0,7.29-8.89,13.17-16.8,11.33C984.31,806.61,977.14,804.72,969,802.7Z" transform="translate(-653.64 -673.03)"/>
  <path d="M946.25,734.31H911.08c-10.19,0-10.19,0-10.19-10.35,0-11.83,0-23.65,0-35.48,0-10.34,3.23-14.27,13.68-15.14a128.33,128.33,0,0,1,21.38.35c6,.51,10.11,4.33,10.34,10.33.63,16.13.58,32.28.76,48.43C947.07,732.9,946.69,733.35,946.25,734.31Z" transform="translate(-653.64 -673.03)"/>
</svg>
