<svg id="Layer_1" data-name="Layer 1" xmlns="http://www.w3.org/2000/svg" viewBox="0 0 909.94 269.86">
  <title>S4G-wordmark</title>
  <path d="M580.22,675.28c5.47,6.76,10.7,13.73,16.47,20.22q18.43,20.71,37.37,41c6.38,6.83,13.46,13,19.86,19.84a93.69,93.69,0,0,1,10.79,13.84c4.08,6.43,7.54,13.27,8.94,20.92.49,2.7-1.51,4.51-2.52,6.63-4,8.35-9.87,16-8.49,26.2.65,4.71,1.88,8.9,4.8,12.82a52.16,52.16,0,0,1,5.64,10.69c2.28,5.32,4.75,10.66,6.12,16.24,1.22,5,1.32,10.31,1.42,15.49.1,4.89-.44,9.8-.24,14.93a26.55,26.55,0,0,0,1.42-3.42,28.39,28.39,0,0,1,6.46-12.15c3.72-4.15,3.83-9.59,3.88-14.82.06-5.67-1.88-10.78-4.93-15.55a55.22,55.22,0,0,1-5-9.27,10.91,10.91,0,0,1-.49-6.5c1.51-5.24,2.83-10.67,6.81-14.82.29-.3.28-.89.43-1.33,1.29-3.67,2.66-7.27,6.48-9.15a2.44,2.44,0,0,0,1-1.07c3.86-7.38,10.13-12.71,16-18.27,19.88-18.83,38.43-38.82,54.69-60.88a48.67,48.67,0,0,1,5.35-6.11c.78-.75,2.18-.84,3.3-1.23a21,21,0,0,1,.89,3.42,3.82,3.82,0,0,1-.6,2.2c-1.24,2-2.44,3.69.24,5.83.7.56.11,3.62-.73,5a101.14,101.14,0,0,1-7.17,10.2c-1.61,2.08-2.37,3.72-.21,6,.73.78.61,3.09,0,4.22a69.32,69.32,0,0,1-5.08,7.4c-1,1.32-1.61,2.47-.47,4.17,1.59,2.36.34,4.65-.77,6.82-.76,1.48-1.37,2.58-.15,4.43.81,1.23.55,3.68-.1,5.21-.73,1.72-.81,2.89.51,4.11a2.86,2.86,0,0,1,.37,4.16c-2.33,3.07-4.77,6.06-7.27,9a41.94,41.94,0,0,1-3.57,3.31l2.56,2.26a6,6,0,0,1,1.75,7.34,3.45,3.45,0,0,0,.54,4.17c1.83,2.17,1.4,4.37-.93,6.3-1.88,1.54-2.51,2.74-.07,4.51a3.83,3.83,0,0,1,.58,3.71,19.42,19.42,0,0,1-4.73,4.48c-2.66,1.92-2.88,2.42-.7,4.85,1.33,1.48,1.27,2.75-.19,4a14.65,14.65,0,0,1-2.86,2c-2.36,1.19-3.53,2.85-2.91,5.6.38,1.66-.19,2.74-1.85,3.74a7.15,7.15,0,0,0-2.69,4c-.52,1.82-1.13,3-3,3.86a5.35,5.35,0,0,0-2.51,3.09c-.77,2.6-1.93,4.3-4.88,4.53a2.85,2.85,0,0,0-2,1.86c-.31,2.15-1.77,3-3.32,4.06-1.19.83-1.88,2.36-2.86,3.52-.67.79-1.32,1.87-2.2,2.14-1.79.57-3.13,1.19-3.57,3.27a5,5,0,0,1-1.83,2.51c-1.33,1.06-1.72,2.32-2.28,3.92-1,3-2.76,6.61-5.26,7.89-2.66,1.37-2.4,2.6-2.54,4.7a7,7,0,0,1-2,3.64c-5.6,6.4-10.63,13.17-14.13,21a30.84,30.84,0,0,1-2.78,4.39c-1.74,2.55-3.37,5.18-5.32,7.56-1.55,1.89-3.07,1.55-3.42-.73-1.66-10.59-3.88-21.17-1.86-32a15.35,15.35,0,0,1,1.26-4.74c1.28-2.21.82-4-.45-5.89-5.32-8.14-10.49-16.39-15.87-24.49-2.12-3.18-4.89-5.92-6.92-9.14-1.12-1.78-1.34-4.13-2.08-6.59-2-.06-3.54-1.37-4-4.08-.15-.82-1.17-1.46-1.73-2.22a8,8,0,0,1-1.65-2.6c-.41-1.87-.71-3.61-2.89-4.25a1.47,1.47,0,0,1-.91-1c.16-3.73-2.62-4.25-5.27-5a7.91,7.91,0,0,1-1.41-.77c1.76-2.82.36-3.94-2.2-4.86a4.9,4.9,0,0,1-2.71-2.83c-.54-1.9-1.42-2.84-3.34-3-2.08-.13-3.45-1-3.51-3.35s-1.39-3.46-3.57-3.92c-2.44-.51-3.44-2-2.78-4.48.52-1.94-.41-3-2.07-3.53-2-.69-2.75-2-2.23-4s-.41-3.35-2-4.39c-.89-.58-1.76-1.2-2.66-1.76-2.17-1.33-2.64-3.14-1.08-5.11,1.8-2.29,1-3.63-1.27-4.7a4.16,4.16,0,0,1-.51-.28c-5.91-3.59-6.09-4.56-1.68-10.14-1.08-1.33-2.2-2.74-3.35-4.12s-1.32-2.8.27-4c2.06-1.53,2.1-3.33.84-5.32-1.58-2.48-1.3-4.45,1.3-6.09,2.24-1.41,2.53-3,.49-5.11a102.87,102.87,0,0,1-6.91-7.85c-1.72-2.13-2.86-4.39-.35-7,.5-.52.11-2.13-.16-3.16-.61-2.29-2-4.52.84-6.46.38-.26.09-2.28-.49-3-2-2.52-2-5-.89-7.86a4.39,4.39,0,0,0-.61-3.33c-1.35-2.23-3.13-4.19-4.48-6.42-1.45-2.41-2.43-4.94.46-7.25.38-.3.35-1.65,0-2.23-.87-1.49-2.08-2.79-3.06-4.23-2.34-3.41-4.62-6.85-6.93-10.28v-2.32c3.13-2.52,1.45-5,0-7.56v-5.24Z" transform="translate(-577.89 -675.28)"/>
  <path d="M1211.69,862.86H1188V841.57h-7.88c-8.14,0-16.28-.05-24.42,0-1.75,0-2.81-.41-3.63-2.06-1.81-3.64-4-7.12-5.71-10.77a3.79,3.79,0,0,1,.24-3.24q21.63-29.55,43.44-59c.52-.7,1.41-1.58,2.15-1.59,6.37-.13,12.74-.08,19.36-.08v56.72h9.2v19.81h-9Zm-39.28-41.15h17.32V797.13Z" transform="translate(-577.89 -675.28)"/>
  <path d="M835,791.16h19.29c3.58,16,7.16,32.11,10.81,48.46.23-13.77,5.55-26.25,9.58-39.25,4.13,0,8.2-.07,12.25.07a2.67,2.67,0,0,1,2,1.48c3.28,11.51,7.57,22.78,8.79,34.81a14.07,14.07,0,0,0,.46,2.12l11-47.67h19.16l-20.76,71.89c-5.22,0-10.35.09-15.46-.09-.76,0-1.84-1.23-2.14-2.1-3.55-10.34-7-20.72-7.89-31.72a1.6,1.6,0,0,0-.94-1.25c-.83,4.79-1.44,9.64-2.57,14.35-1.55,6.49-3.46,12.89-5.35,19.28a2.69,2.69,0,0,1-2,1.47c-4.55.13-9.11,0-13.66.1-2,0-2-1.42-2.38-2.65q-7.74-26.6-15.46-53.2C838.08,802,836.56,796.69,835,791.16Z" transform="translate(-577.89 -675.28)"/>
  <path d="M1425.68,863c3.37-24,6.7-47.73,10-71.68a18.69,18.69,0,0,1,2.21-.25c8.9,0,17.81-.18,26.71.07a34.83,34.83,0,0,1,10.2,1.89c9.38,3.22,14,10.84,12.79,20.84q-1.55,12.66-3.61,25.26c-2.15,13.05-10.83,21.44-24.25,23.24-5,.67-10,.53-15,.61C1438.45,863.08,1432.18,863,1425.68,863Zm20.76-16.93c3.11,0,5.71,0,8.3,0a22.69,22.69,0,0,0,4-.43c4.19-.87,6.5-3.31,7.16-7.6q1.69-11,3.26-22.06c.54-3.81-1.31-7-5.13-7.46s-8-.12-12.23-.12C1450.06,820.79,1448.29,833.19,1446.44,846.08Z" transform="translate(-577.89 -675.28)"/>
  <path d="M1318.17,864.53c-6.14-.36-12-1.43-17.25-4.68-7.12-4.4-10.32-10.92-9.4-19.17,1-8.45,2.35-16.85,3.56-25.27,1.66-11.49,8.41-18.84,19-22.85a37.83,37.83,0,0,1,27.5-.35c10,3.73,14.79,11.45,13.57,22-1,8.54-2.25,17.06-3.68,25.54-2.2,13.06-10.83,20-23,23.2A97.66,97.66,0,0,1,1318.17,864.53Zm9.27-58.14c-1.88.13-3,.13-4,.28-5.58.8-9.42,4.06-10.08,8.54q-1.71,11.63-3.38,23.25c-.56,3.87.83,6.35,4.49,7.78a15.4,15.4,0,0,0,14.69-1.49,9.53,9.53,0,0,0,3.91-5.42c1.53-8.07,2.61-16.22,3.67-24.37.52-4-1-6.29-4.71-7.61A27.41,27.41,0,0,0,1327.44,806.39Z" transform="translate(-577.89 -675.28)"/>
  <path d="M1385.53,864.54c-6.14-.38-12-1.46-17.23-4.73-7.11-4.43-10.26-11-9.32-19.21,1-8.45,2.36-16.85,3.57-25.27,1.66-11.5,8.47-18.81,19-22.8a37.86,37.86,0,0,1,27.24-.39c10.11,3.74,15,11.52,13.75,22.15-1,8.45-2.23,16.87-3.62,25.26-2.19,13.18-10.82,20.23-23.14,23.41A100.34,100.34,0,0,1,1385.53,864.54Zm8.55-58.35-.07.26c-1.06.07-2.13.07-3.18.23-5.45.8-9.35,4-10,8.31-1.18,7.84-2.39,15.67-3.35,23.54a7.67,7.67,0,0,0,1.09,5.15c2.77,3.55,6.89,4.06,11.07,3.51,4.55-.59,8.71-2,10.7-6.78a3.48,3.48,0,0,0,.26-.83c1.22-8.32,2.53-16.63,3.62-25,.46-3.54-.94-5.74-4.28-7A41.08,41.08,0,0,0,1394.08,806.19Z" transform="translate(-577.89 -675.28)"/>
  <path d="M1082.22,791.22h17.85v26.85h21.2V791.28h18.06v71.57h-17.87v-27h-21.24V862.8h-18Z" transform="translate(-577.89 -675.28)"/>
  <path d="M1286.15,805.26l-15.33,6.81c-3.82-6.51-9.69-7.5-15.78-4.42a9.06,9.06,0,0,0-5.13,7.26c-1,7.77-2.21,15.52-3.29,23.28-.69,4.94,1.42,8.36,6.34,8.94a21.21,21.21,0,0,0,9.31-1.12c4.13-1.5,5.76-5.11,5.57-9.88h-11.25c.7-5.17,1.35-9.92,2-14.83h27c.56,0,1.12.09,2.25.19-1.31,7.78-1.84,15.59-4,22.9-3.46,11.45-12.57,17-23.81,19.16a32,32,0,0,1-20.16-2.16c-9.28-4.35-13.12-11.84-11.76-23.46.89-7.68,2.3-15.31,3.18-23,1.54-13.42,11.84-22.2,25-24.49,5.91-1,11.77-1,17.45,1.22A19.66,19.66,0,0,1,1286.15,805.26Z" transform="translate(-577.89 -675.28)"/>
  <path d="M820.11,810.49c-3.85-3.48-7.88-5.9-12.94-5.71-1.42.06-3.2.12-4.15,1-1.49,1.3-3.22,3.18-3.37,4.93-.12,1.56,1.41,3.91,2.87,4.78,2.43,1.44,5.38,2,8.13,2.88,3.86,1.22,8,2,11.57,3.68,13.72,6.51,15.78,25.53,4,35.13-14,11.42-35.13,8.66-45.28-6.06l11.26-10.62c3.7,3.8,8,6.29,13.24,6.7a14.24,14.24,0,0,0,6.75-.94,6.41,6.41,0,0,0,3.33-4.2c.17-1.36-1.25-3.61-2.58-4.31a33,33,0,0,0-9-3.08c-5.71-1.11-11.06-2.89-15.46-6.82A21,21,0,0,1,793,793.18a31.53,31.53,0,0,1,38.9,8.23Z" transform="translate(-577.89 -675.28)"/>
  <path d="M1075.75,806.11l-15.29,6.21c-3.64-4.93-8.47-6.67-14.31-5.3-4.86,1.15-7,3.91-7,8.92,0,7,0,13.95,0,20.93,0,5.65,1.57,8.16,6,9.69a11.71,11.71,0,0,0,13.11-3.61c.47-.61.89-1.25,1.52-2.15l16.21,7.5c-2.81,3.25-5,6.47-7.82,9-11.31,9.9-30.4,9.1-40.82-1.5a21.61,21.61,0,0,1-6.3-15.46c-.07-8.52,0-17,0-25.57,0-9.39,4.12-16.34,12.23-20.92,11.32-6.4,26.22-5.26,35,2.93C1071,799.3,1073,802.65,1075.75,806.11Z" transform="translate(-577.89 -675.28)"/>
  <path d="M997.08,862.85H978.75V808.41h-19V791.26H1016v17h-18.9Z" transform="translate(-577.89 -675.28)"/>
  <path d="M934.64,791.22h17.59V862.8H934.64Z" transform="translate(-577.89 -675.28)"/>
</svg>
